<svg width="38" height="38" viewBox="0 0 38 38" fill="none" xmlns="http://www.w3.org/2000/svg">
<path d="M21.8218 31.3761C21.8218 29.293 21.8218 27.2099 21.8218 25.1267C21.8218 24.7066 21.8243 24.704 22.2549 24.7015C23.4637 24.7015 24.6726 24.6939 25.8814 24.7066C26.1383 24.7066 26.2365 24.6306 26.2742 24.3674C26.5034 22.7576 26.7477 21.1478 26.997 19.5405C27.0424 19.2494 26.8711 19.2621 26.6847 19.2621C25.2316 19.2621 23.776 19.2621 22.3229 19.2621C21.9905 19.2621 21.8243 19.0942 21.8243 18.7584C21.8243 17.6725 21.8142 16.5867 21.8318 15.5008C21.8444 14.6934 22.0912 13.9695 22.7158 13.4152C23.2698 12.9241 23.9372 12.752 24.6499 12.7343C25.4054 12.714 26.1634 12.7191 26.919 12.7292C27.1733 12.7318 27.264 12.6508 27.2614 12.3901C27.2514 11.0663 27.2514 9.74501 27.2614 8.42123C27.2614 8.15293 27.1532 8.04409 26.9089 8.01878C25.4936 7.86691 24.0807 7.6467 22.6553 7.71757C20.9277 7.80616 19.3261 8.27695 18.0241 9.49949C17.3088 10.1728 16.8001 10.9853 16.4727 11.9117C16.0748 13.0304 15.9388 14.1922 15.9489 15.3743C15.959 16.5006 15.9489 17.6245 15.9489 18.7508C15.9489 19.0917 15.7751 19.2621 15.4276 19.2621C14.1306 19.2621 12.8337 19.2697 11.5367 19.257C11.2572 19.2545 11.1615 19.338 11.164 19.6266C11.1766 21.1959 11.1766 22.7677 11.164 24.337C11.164 24.6256 11.2597 24.7091 11.5392 24.7066C12.8765 24.6965 14.2112 24.7015 15.5485 24.7015C15.9388 24.7015 15.9514 24.7142 15.9514 25.0964C15.9514 29.2829 15.9514 33.4694 15.9514 37.6559C15.9514 38.028 15.9514 38.0128 15.5611 37.947C14.6771 37.8002 13.8158 37.5698 12.9646 37.2914C11.6903 36.8712 10.4714 36.327 9.32055 35.6436C7.79945 34.74 6.41686 33.6542 5.20301 32.3633C4.27624 31.3787 3.46281 30.3055 2.75515 29.1513C1.71758 27.4554 0.974656 25.638 0.501201 23.7093C0.244327 22.6639 0.0680408 21.6009 0.0302651 20.5251C-0.0201024 19.1254 -0.0326942 17.7232 0.196478 16.331C0.768149 12.8457 2.15577 9.73489 4.42483 7.02404C6.21036 4.89029 8.35601 3.23745 10.8643 2.05035C12.3376 1.35176 13.8763 0.880963 15.4755 0.56204C17.0419 0.250709 18.6209 0.215273 20.1974 0.303863C23.0029 0.463325 25.6321 1.27582 28.09 2.65276C29.8403 3.63231 31.3966 4.85485 32.754 6.32798C34.0686 7.75554 35.1465 9.35016 35.9775 11.1144C36.7834 12.833 37.3274 14.6276 37.6019 16.5032C37.8134 17.9434 37.8008 19.3912 37.7177 20.8441C37.6674 21.7046 37.5289 22.5501 37.3425 23.3879C37.005 24.9243 36.4762 26.3974 35.7685 27.8047C35.0785 29.1791 34.2323 30.4447 33.2451 31.6141C32.1647 32.8923 30.9232 33.9908 29.5481 34.94C28.2461 35.8411 26.851 36.5574 25.3727 37.1066C24.3855 37.4736 23.3781 37.7647 22.333 37.9267C21.8243 38.0052 21.8243 38.0077 21.8243 37.4787C21.8243 35.4437 21.8243 33.4112 21.8243 31.3761H21.8218Z" fill="white"/>
</svg>
