<svg width="75" height="75" viewBox="0 0 75 75" fill="none" xmlns="http://www.w3.org/2000/svg">
<path d="M61.4103 65.1362V71.5298H62.1154C64.6356 71.5298 62.2879 71.5298 64.8081 71.5298C65.0182 71.5298 65.2356 71.5298 65.4457 71.5598C66.1882 71.6797 66.7282 72.3018 66.7132 73.0064C66.6982 73.7409 66.1207 74.3555 65.3557 74.4305C65.1832 74.4455 65.0107 74.4455 64.8307 74.4455C43.1989 74.4455 31.3105 74.4455 9.67876 74.4455C9.46874 74.4455 9.25124 74.4455 9.04123 74.4155C8.33617 74.3031 7.8111 73.696 7.7961 73.0064C7.7811 72.3468 8.26867 71.7397 8.95122 71.5898C9.19124 71.5373 9.45376 71.5373 9.70128 71.5373C12.2215 71.5373 9.87377 71.5373 12.394 71.5373H13.099V65.1437C12.904 65.1437 12.679 65.1437 12.4539 65.1437C8.94366 65.1437 5.43336 65.1437 1.92308 65.1437C0.505464 65.1437 -0.0120292 64.634 0.00297201 63.2099C0.0254738 61.426 -0.0720779 59.6271 0.145439 57.8732C0.647979 53.7508 3.79074 50.4078 7.84857 49.4409C9.28118 49.0961 10.7138 48.7439 12.1464 48.4215C12.5214 48.3391 12.6265 48.1817 12.6565 47.7994C12.724 47.0049 12.4989 46.4952 11.7864 45.9856C9.68621 44.479 8.38113 42.3578 8.24612 39.7719C8.09611 36.8187 8.07358 33.8355 8.3136 30.8899C8.60612 27.2696 11.8689 24.0016 15.4692 23.4245C17.9669 23.0197 20.4346 23.0947 22.6923 24.4288C23.5023 24.9086 24.2299 25.5307 24.9949 26.0853C27.1851 20.5762 31.183 17.2708 37.266 17.2858C43.3265 17.3007 47.3017 20.5987 49.4694 26.0478C50.3919 25.4257 51.2546 24.6762 52.2521 24.204C56.1975 22.3152 62.2954 22.8923 65.1156 27.7943C65.8506 29.076 66.3008 30.4551 66.3233 31.9317C66.3608 34.2778 66.3908 36.6238 66.3233 38.9699C66.2333 42.058 64.8756 44.5015 62.3329 46.2854C61.9204 46.5702 61.6129 47.8069 61.8904 48.2042C61.9804 48.3316 62.2205 48.3841 62.393 48.429C64.2456 48.9162 66.1507 49.261 67.9508 49.8981C71.7836 51.2473 74.4089 55.04 74.4764 59.0875C74.4989 60.5041 74.4839 61.9207 74.4764 63.3299C74.4764 64.5966 73.9288 65.1437 72.6687 65.1437C69.121 65.1437 65.5657 65.1437 62.0179 65.1437H61.3728L61.4103 65.1362ZM27.3726 33.2809C27.3726 34.8249 27.3277 36.2566 27.3877 37.6882C27.4252 38.5501 27.5452 39.4271 27.7702 40.2591C28.8953 44.419 32.6231 47.2823 37.0259 47.4397C41.1962 47.5896 45.1265 44.8762 46.5591 40.9262C47.4517 38.4527 47.0392 35.9118 47.1592 33.3109C44.084 33.4458 41.7438 32.224 40.1236 29.6531C36.2908 32.4189 32.0605 33.5357 27.3651 33.2809H27.3726ZM20.3446 58.3379C18.0794 60.0244 16.5418 62.318 16.2117 65.2187C15.9792 67.2499 16.0918 69.3187 16.0543 71.3649C16.0543 71.3949 16.0917 71.4324 16.1217 71.4848H33.5157C29.1503 67.1225 24.7699 62.7452 20.3521 58.3379H20.3446ZM54.2773 58.4129C49.8294 62.8427 45.4566 67.205 41.1512 71.4923H58.4552C58.4777 71.3724 58.5001 71.275 58.5001 71.185C58.4851 69.4611 58.5601 67.7296 58.4326 66.0132C58.2001 62.8052 56.7 60.2493 54.2773 58.4054V58.4129ZM47.1667 30.3427C47.1067 26.5575 45.6291 23.5519 42.3964 21.6181C38.8261 19.4819 35.1658 19.5718 31.708 21.8804C28.7453 23.8592 27.3801 26.7674 27.3651 30.3952C27.8752 30.3952 28.3177 30.3952 28.7602 30.3952C32.233 30.3952 35.4358 29.4807 38.226 27.3895C39.3136 26.5725 40.2587 25.5532 41.2487 24.6012C41.9913 23.8817 42.8313 23.7768 43.4614 24.3689C44.0839 24.9535 44.069 25.7855 43.4164 26.55C43.1539 26.8574 42.8538 27.1422 42.6138 27.472C42.5238 27.5919 42.4638 27.8542 42.5388 27.9667C43.4839 29.5182 44.834 30.59 47.1742 30.3502L47.1667 30.3427ZM50.167 35.7843C50.167 37.0286 50.0845 38.3702 50.1895 39.6894C50.302 41.1285 51.0295 42.3353 52.1021 43.3022C54.1047 45.1011 56.4749 45.2585 58.9276 44.6664C60.9003 44.1867 62.2429 42.875 63.0005 41.0011C63.698 39.2772 63.383 37.4558 63.458 35.6494C63.278 35.6194 63.1654 35.597 63.0529 35.5895C60.9528 35.4845 58.9651 34.9673 57.09 34.0004C56.91 33.903 56.6024 33.933 56.3999 34.0154C55.7999 34.2403 55.2448 34.5926 54.6373 34.7575C53.1672 35.1397 51.6746 35.4471 50.1745 35.7843H50.167ZM11.1789 35.6419C11.1789 37.0361 11.0964 38.3777 11.2014 39.6969C11.3139 41.136 12.0414 42.3428 13.114 43.3097C15.0942 45.0936 17.4494 45.251 19.8871 44.6814C21.8447 44.2241 23.1948 42.9349 23.9748 41.1061C24.7174 39.3521 24.4024 37.4933 24.4549 35.6569C24.2899 35.6269 24.1999 35.6045 24.1099 35.597C21.9872 35.492 19.9845 34.9748 18.0869 34.0004C17.8919 33.903 17.5769 33.963 17.3368 34.0379C15.9942 34.4727 14.6816 34.9748 13.324 35.3571C12.6265 35.552 11.8764 35.552 11.1714 35.6419H11.1789ZM2.92822 62.1831C3.07823 62.2055 3.13823 62.2205 3.19823 62.2205C6.64851 62.2205 10.1062 62.228 13.5565 62.2055C13.7365 62.2055 13.9916 62.0032 14.0891 61.8308C14.4191 61.2386 14.7266 60.6315 14.9891 60.0094C15.1017 59.7471 15.1542 59.4023 15.0867 59.1324C14.5616 57.0112 14.0065 54.8901 13.459 52.7764C13.324 52.2592 13.1965 51.742 13.0465 51.1649C11.1714 51.6521 9.36374 52.0118 7.6236 52.604C5.41093 53.3535 3.98578 54.98 3.27322 57.1986C2.75568 58.8251 2.98073 60.4966 2.93573 62.1831H2.92822ZM71.5512 62.2205C71.5512 60.9763 71.6112 59.8145 71.5361 58.6602C71.4161 56.9363 70.7036 55.4597 69.4885 54.223C68.7384 53.4659 67.8834 52.8513 66.8633 52.559C65.1006 52.0568 63.323 51.6296 61.5003 51.1649C61.4028 51.4947 61.3354 51.727 61.2679 51.9669C60.7053 54.1405 60.1878 56.3217 59.5802 58.4803C59.3627 59.2674 59.3627 59.927 59.8503 60.6015C60.0978 60.9388 60.2553 61.3511 60.3903 61.7558C60.5178 62.1456 60.7428 62.228 61.1178 62.228C64.163 62.213 67.2008 62.2205 70.2461 62.2205C70.6661 62.2205 71.0936 62.2205 71.5512 62.2205ZM37.2059 66.7927C37.2434 66.7927 37.2884 66.7927 37.3259 66.7927C37.3859 66.5978 37.4534 66.4104 37.506 66.2156C38.616 61.9057 39.7711 57.6109 40.7912 53.2785C41.0387 52.2142 40.8288 51.0374 40.8288 49.8457C38.4361 50.5278 36.0658 50.4828 33.5832 49.8307C33.6432 51.0899 33.5307 52.2892 33.7857 53.391C34.7608 57.5134 35.8558 61.6059 36.9134 65.7059C37.0034 66.0732 37.1084 66.4329 37.2059 66.7927ZM24.3949 32.6663C24.5824 31.0847 23.7348 29.046 22.5722 27.8917C20.0895 25.4182 14.5766 25.4557 12.3339 28.6113C11.4788 29.8255 11.0589 31.1372 11.0889 32.6963C11.7339 32.6288 12.3264 32.5988 12.9115 32.4939C14.2616 32.254 15.5292 31.7818 16.6843 31.0398C17.4268 30.5676 18.1319 30.5676 18.852 31.0548C19.107 31.2272 19.3845 31.3696 19.662 31.512C21.1396 32.2465 22.6998 32.6363 24.3874 32.6663H24.3949ZM63.4355 32.6738C63.4655 30.7774 62.8429 29.2109 61.5603 27.9067C59.1076 25.4107 53.5798 25.4557 51.3296 28.6188C50.467 29.833 50.0545 31.1447 50.0845 32.7112C50.7295 32.6438 51.322 32.6138 51.9071 32.5089C53.2572 32.269 54.5248 31.7968 55.6799 31.0548C56.4224 30.5826 57.1275 30.5826 57.8476 31.0623C58.1026 31.2347 58.3801 31.3771 58.6576 31.5195C60.1352 32.2615 61.6953 32.6438 63.4355 32.6738ZM34.4232 67.9545C34.4232 67.9545 34.4457 67.8795 34.4382 67.8496C33.3731 63.6746 32.3005 59.4922 31.2355 55.3173C31.1455 54.9575 30.9654 54.9275 30.6429 55.0025C28.4827 55.5272 26.315 56.0368 24.1549 56.5615C23.8623 56.629 23.5848 56.7489 23.3148 56.8389C27.0351 60.5566 30.7104 64.2368 34.4232 67.9545ZM40.0861 67.902C43.7764 64.2218 47.4668 60.5341 51.2246 56.7864C48.6444 56.1643 46.0641 55.5422 43.4164 54.9051C42.2913 59.3048 41.1812 63.6222 40.0861 67.902ZM43.8215 50.6327C44.489 50.3329 45.0141 50.0181 45.5841 49.8607C47.4293 49.3435 49.2894 48.8863 51.1421 48.3991C51.3071 48.3541 51.5096 48.3166 51.6071 48.2042C51.8696 47.8894 51.5545 46.6002 51.2395 46.3153C50.4294 45.5733 49.6569 44.7938 48.8694 44.0368C48.7644 43.9393 48.6668 43.8269 48.5768 43.7219C48.5018 43.7744 48.4643 43.7894 48.4418 43.8194C47.3392 45.6782 45.8991 47.2298 44.0765 48.3991C43.964 48.474 43.8439 48.6389 43.8364 48.7588C43.8139 49.351 43.829 49.9431 43.829 50.6327H43.8215ZM30.7179 50.5352C30.7179 50.078 30.6879 49.6208 30.7254 49.1636C30.7629 48.7139 30.5529 48.489 30.2229 48.2192C29.2103 47.3572 28.2127 46.4728 27.2901 45.5283C26.7801 45.0037 26.4126 44.3366 26.0151 43.7819C25.235 44.5464 24.5524 45.3934 23.7048 45.993C23.0223 46.4727 22.7897 46.9674 22.8422 47.747C22.8722 48.1892 23.0223 48.3391 23.4273 48.429C24.7324 48.7139 26.0376 48.9987 27.3202 49.366C28.4453 49.6883 29.5328 50.123 30.7179 50.5352ZM56.835 56.8314L57.0375 56.7489C57.6676 54.3129 58.3126 51.8844 58.8977 49.4409C59.0252 48.9013 58.9202 48.3016 58.9202 47.7844H54.5623C54.5923 48.3616 54.5323 48.9762 54.6673 49.5459C55.1699 51.6745 55.7323 53.7882 56.3024 55.8944C56.3924 56.2317 56.655 56.5241 56.8425 56.8314H56.835ZM19.9846 47.7844H15.5067C15.5892 48.5415 15.6192 49.3285 15.7843 50.093C16.0693 51.4197 16.4443 52.7239 16.7818 54.0356C17.0143 54.9425 17.2618 55.8495 17.5319 56.8913C17.8019 56.614 18.0944 56.4491 18.1395 56.2317C18.762 53.421 19.9096 50.7076 19.9846 47.7919V47.7844ZM52.0421 51.1724C50.2045 51.6221 48.4568 52.0568 46.7092 52.484C46.7167 52.544 46.7242 52.6115 46.7317 52.6714C48.7344 53.1811 50.7445 53.6833 52.8222 54.2155C52.5522 53.1811 52.3046 52.2142 52.0346 51.1724H52.0421ZM21.7022 54.2155C23.7949 53.6833 25.79 53.1736 27.7852 52.6639C27.7852 52.604 27.7852 52.5365 27.7852 52.4765C26.0301 52.0493 24.2749 51.6221 22.4822 51.1873C22.2122 52.2217 21.9723 53.1811 21.7022 54.223V54.2155Z" fill="#BF8CCF"/>
<path d="M48.1343 14.5949C46.7842 14.6024 46.0791 13.4481 46.5966 12.4962C46.6941 12.3088 46.8292 12.1364 46.9792 11.994C48.7793 10.1876 50.5869 8.38123 52.3946 6.57484C52.8446 6.12512 53.3697 5.88527 54.0222 6.09514C54.8698 6.37247 55.2598 7.34687 54.8323 8.12639C54.7198 8.32876 54.5698 8.51614 54.4123 8.67355C52.6496 10.4425 50.8945 12.2114 49.1093 13.9578C48.7793 14.2801 48.3368 14.475 48.1343 14.6024V14.5949Z" fill="#BF8CCF"/>
<path d="M21.252 6.14758C21.5971 6.34246 21.9947 6.47738 22.2647 6.74721C24.0198 8.46365 25.7599 10.2026 27.4851 11.949C28.1376 12.6161 28.1526 13.5005 27.5751 14.0777C26.9825 14.6698 26.135 14.6773 25.4525 14.0027C23.6823 12.2713 21.9422 10.5099 20.1945 8.75597C19.7295 8.29126 19.6094 7.71412 19.8494 7.0995C20.052 6.57482 20.6145 6.23753 21.252 6.14758Z" fill="#BF8CCF"/>
<path d="M38.7211 4.61105C38.7211 5.54048 38.7211 6.4699 38.7211 7.39933C38.7136 8.45618 38.121 9.14575 37.251 9.13076C36.3959 9.11577 35.8183 8.44868 35.8108 7.42931C35.8033 5.4955 35.8108 3.5617 35.8108 1.62789C35.8108 0.930821 36.0959 0.383658 36.7709 0.113825C37.3335 -0.111036 37.896 -0.00610121 38.2485 0.458612C38.511 0.803399 38.676 1.2831 38.706 1.71784C38.7736 2.67724 38.7286 3.65164 38.7286 4.61855L38.7211 4.61105Z" fill="#BF8CCF"/>
<path d="M38.7059 12.7585C38.6909 13.5381 38.0009 14.1977 37.2283 14.1677C36.4408 14.1377 35.7957 13.4481 35.8257 12.6761C35.8632 11.9116 36.5082 11.2894 37.2733 11.2969C38.0608 11.2969 38.7209 11.9715 38.7059 12.751V12.7585Z" fill="#BF8CCF"/>
</svg>
