<svg width="79" height="79" viewBox="0 0 79 79" fill="none" xmlns="http://www.w3.org/2000/svg">
<path d="M35.1914 9.43135C35.9635 9.34004 36.5695 9.78832 37.1755 10.1868C37.9393 10.6932 38.6947 11.2079 39.4419 11.7309C39.7241 11.9301 39.9815 11.9633 40.2886 11.8222C40.712 11.623 41.1437 11.4403 41.5754 11.2743C41.9157 11.1415 41.9987 10.8592 42.0569 10.5604C42.2644 9.56418 42.4221 8.55969 42.6629 7.5718C43.0779 5.83677 43.9662 5.15604 45.7345 5.15604C46.631 5.15604 47.5276 5.13944 48.4159 5.15604C48.7894 5.15604 49.0717 5.03982 49.329 4.77417C49.6777 4.4089 50.0181 4.01872 50.4497 3.74477C51.3048 3.19687 52.1765 3.16366 53.0398 3.68666C53.6791 4.07683 54.3017 4.50022 54.9243 4.9236C55.8873 5.57942 56.9499 5.14774 57.1574 4.01872C57.2902 3.29649 57.448 2.58255 57.614 1.87692C57.888 0.706393 58.7347 0.0256638 59.9218 0.00906068C60.8184 0.000759106 61.715 0.00906068 62.6033 0.00906068C63.5828 0.00906068 64.2553 0.490552 64.6704 1.36222C65.0439 2.15087 65.1103 3.00593 65.2515 3.84439C65.4756 5.16434 66.5133 5.62093 67.634 4.86548C68.1736 4.50022 68.7132 4.13495 69.2611 3.78628C70.1909 3.18026 71.1622 3.10555 72.0505 3.78628C72.9802 4.50022 73.8436 5.31377 74.5077 6.29336C75.0805 7.13182 75.0307 8.02008 74.4828 8.87515C74.0594 9.53927 73.6029 10.1868 73.1712 10.8592C72.6897 11.6147 73.1463 12.7188 74.0179 12.8931C74.6572 13.0259 75.2964 13.1173 75.9356 13.2418C77.4963 13.5572 78.1936 14.404 78.2019 15.9896C78.2019 16.7866 78.2102 17.5752 78.2019 18.3722C78.177 19.4597 77.488 20.323 76.4337 20.5804C75.645 20.7713 74.8481 20.929 74.0511 21.0868C73.1629 21.2694 72.6814 22.3237 73.1712 23.1041C73.6029 23.7931 74.0843 24.4489 74.4911 25.1545C75.1303 26.2504 74.9975 27.2881 74.1092 28.2178C73.5779 28.7823 73.03 29.3219 72.4738 29.8615C71.5441 30.7664 70.1909 30.8577 69.12 30.1106C68.7381 29.8449 68.348 29.5876 67.9661 29.3136C67.6921 29.1144 67.4514 29.1144 67.2189 29.38C66.6876 29.9944 65.9903 30.2766 65.2017 30.4094C64.2387 30.5672 63.2923 30.7913 62.3376 30.9823C62.0886 31.0321 61.8561 31.1068 61.7482 31.3641C61.5324 31.912 61.358 32.4765 61.0675 32.9912C60.9761 33.1573 61.1007 33.2984 61.192 33.4312C61.7897 34.3278 62.3791 35.2327 62.9768 36.1209C63.8817 37.4658 63.8568 38.6197 62.7859 39.8317C62.0471 40.6619 61.275 41.4754 60.4033 42.1728C59.4653 42.9199 58.137 42.9531 57.1574 42.2973C56.2442 41.6913 55.3311 41.0853 54.4262 40.4544C54.1024 40.2302 53.8119 40.1721 53.4715 40.3962C53.3553 40.471 53.2225 40.5706 53.0897 40.5872C51.9772 40.72 51.7033 41.4838 51.6037 42.4467C51.5373 43.086 51.3214 43.7169 51.2135 44.3561C50.9229 46.0662 50.1343 46.8798 48.4076 47.0126C47.237 47.0956 46.0499 47.1205 44.8794 46.9545C43.8749 46.8051 43.2274 46.2157 42.8704 45.2942C42.4138 44.132 42.3806 42.8701 42.0735 41.6664C41.9489 41.1849 41.758 40.8445 41.2267 40.7698C41.1271 40.7532 41.0109 40.7366 40.9361 40.6702C40.0811 39.9563 39.392 40.3962 38.6781 40.9441C38.014 41.4505 37.3083 41.8988 36.611 42.3471C35.5816 43.0029 34.1704 42.8701 33.2738 42.0317C32.5183 41.3177 31.7795 40.5955 31.049 39.8566C29.9365 38.7276 29.9365 37.3745 31.0158 35.8221C31.464 35.1746 31.904 34.5021 32.3772 33.8712C32.7176 33.4146 32.8089 32.9829 32.5349 32.4682C32.3606 32.1445 32.2195 31.8041 32.1033 31.4637C31.9953 31.1566 31.7795 31.0321 31.4723 30.974C30.4346 30.7747 29.3969 30.5589 28.3592 30.3596C26.9231 30.0774 25.985 29.0314 25.9352 27.562C25.902 26.6073 25.902 25.6526 25.9352 24.698C25.9933 23.1124 26.9314 22.083 28.5419 21.8007C29.5215 21.6264 30.5011 21.4686 31.4723 21.2196C31.8044 21.1366 31.9704 20.9705 32.1365 20.6883C32.7674 19.6174 32.8421 18.6627 31.9289 17.6665C31.3893 17.0771 30.9908 16.3383 30.5841 15.6409C29.9448 14.5368 30.1192 13.3082 31.0158 12.395C31.7131 11.6811 32.4104 10.9754 33.1327 10.2781C33.6889 9.73851 34.3447 9.38985 35.1831 9.46456L35.1914 9.43135ZM35.2413 12.3701C34.9922 12.3867 34.8926 12.5195 34.7847 12.6358C34.3613 13.0508 33.9628 13.4908 33.5311 13.881C33.2157 14.1633 33.1742 14.4123 33.4232 14.7693C34.1288 15.7904 34.7847 16.8447 35.5152 17.8492C36.0133 18.5299 36.0465 19.194 35.6397 19.8913C35.1665 20.7298 34.793 21.6015 34.5522 22.5312C34.3696 23.2452 33.913 23.6188 33.1991 23.7599C31.9455 24.0006 30.692 24.2829 29.4384 24.5319C29.0234 24.6149 28.849 24.8308 28.8656 25.2459C28.8822 25.8353 28.8822 26.4247 28.8656 27.0141C28.849 27.4209 29.0234 27.5786 29.4218 27.6533C30.6007 27.8609 31.7712 28.1431 32.95 28.3341C33.8715 28.4835 34.4194 28.965 34.6269 29.8615C34.8262 30.7 35.1831 31.4804 35.6065 32.2192C36.0216 32.9331 36.0216 33.5807 35.5401 34.2614C34.8428 35.2576 34.187 36.287 33.4896 37.2915C33.1991 37.7065 33.1576 38.0303 33.5809 38.3873C33.9711 38.711 34.3281 39.0763 34.6601 39.4582C34.9922 39.84 35.2745 39.8566 35.6978 39.5578C36.6857 38.8439 37.7234 38.1963 38.7279 37.5073C39.3671 37.0673 39.9815 36.9428 40.7037 37.3828C41.5754 37.9141 42.5466 38.2378 43.5096 38.5533C44.099 38.7442 44.4062 39.1095 44.5639 39.6906C44.8877 40.8528 44.9873 42.0566 45.2945 43.2105C45.6016 44.3727 45.3858 44.2067 46.548 44.2233C46.9548 44.2233 47.3616 44.2067 47.7683 44.2233C48.2249 44.2565 48.4159 44.0572 48.4989 43.6173C48.723 42.3554 48.9887 41.1019 49.2294 39.8483C49.3539 39.2008 49.686 38.7608 50.3584 38.545C51.3463 38.2295 52.3342 37.8975 53.2225 37.3579C53.87 36.9594 54.4345 37.0424 55.0322 37.4575C56.1031 38.1963 57.1989 38.902 58.2698 39.6408C58.5936 39.8649 58.8177 39.8898 59.1 39.5744C59.4902 39.1344 59.8969 38.6944 60.3369 38.3125C60.6939 37.9971 60.6773 37.7563 60.4199 37.3911C59.6728 36.3285 58.9755 35.2327 58.2532 34.1452C57.9046 33.6305 57.8382 33.1075 58.137 32.5346C58.6185 31.6381 59.0419 30.7083 59.3158 29.7287C59.5566 28.8404 60.1128 28.4835 60.9512 28.3424C62.155 28.1348 63.3421 27.8609 64.5375 27.645C64.9028 27.5786 65.0024 27.396 65.0024 27.0639C64.9941 26.4745 64.9858 25.8851 65.0024 25.2957C65.019 24.8225 64.8198 24.59 64.3549 24.507C63.118 24.2746 61.8893 24.0006 60.6524 23.7765C59.9717 23.652 59.5732 23.2784 59.3656 22.6392C59.0751 21.726 58.7845 20.8128 58.2781 19.991C57.7883 19.2023 57.9129 18.505 58.4193 17.791C59.1249 16.7949 59.7807 15.7655 60.4781 14.7693C60.6856 14.4704 60.6939 14.238 60.4116 13.9723C59.9634 13.5572 59.5317 13.1256 59.1166 12.6773C58.8509 12.3867 58.6185 12.3535 58.2864 12.5777C57.1823 13.3331 56.0533 14.0636 54.9409 14.8191C54.4345 15.1594 53.9115 15.2093 53.3885 14.9353C52.4753 14.4455 51.529 14.0221 50.5245 13.7316C49.769 13.5157 49.3373 13.0176 49.1962 12.229C48.9887 11.0253 48.7064 9.83813 48.4989 8.6427C48.4159 8.16121 48.1917 7.98688 47.7268 8.00348C47.1955 8.02839 46.6642 8.02839 46.1412 8.00348C45.6929 7.97858 45.4854 8.15291 45.3941 8.6012C45.145 9.85473 44.8545 11.1083 44.6054 12.3618C44.456 13.109 44.0243 13.5572 43.3104 13.7482C42.3225 14.0138 41.401 14.4372 40.5045 14.927C39.9815 15.2093 39.4502 15.1926 38.9438 14.8523C37.9725 14.1882 37.0012 13.524 36.0216 12.8682C35.756 12.6856 35.4654 12.5361 35.233 12.4033L35.2413 12.3701ZM61.2916 9.00797C63.8236 9.1242 65.899 9.95435 67.468 11.8388C68.9457 13.607 69.6181 15.6409 69.2943 17.9488C69.0702 19.5344 68.4725 20.9622 67.3767 22.1494C67.1359 22.415 67.0446 22.6309 67.3269 22.9214C67.7004 23.3033 67.8997 23.8429 67.8416 24.3244C67.6755 25.6858 68.4808 26.35 69.5019 26.9062C69.5517 26.9394 69.6015 26.9726 69.6513 27.0058C70.6973 27.6699 70.6807 27.6533 71.569 26.7484C71.8761 26.433 71.8678 26.1922 71.6271 25.8602C71.1041 25.1296 70.6226 24.3825 70.1162 23.6437C69.7509 23.1124 69.6347 22.5561 69.9585 21.9833C70.4067 21.1781 70.7305 20.323 71.0128 19.4597C71.1705 18.9699 71.5109 18.6876 72.0173 18.5797C72.8308 18.4137 73.6444 18.231 74.4662 18.0816C75.479 17.8907 75.479 17.899 75.479 16.8447C75.479 16.7866 75.479 16.7201 75.479 16.662C75.5288 16.2137 75.3213 15.9896 74.8813 15.9232C74.2006 15.8153 73.5198 15.6741 72.8391 15.5579C71.8678 15.3919 71.0709 15.0764 70.8052 13.9474C70.6558 13.3082 70.3652 12.6856 70.0083 12.1045C69.643 11.515 69.6845 10.909 70.0913 10.3279C70.5064 9.73021 70.8965 9.10759 71.3116 8.50158C71.9674 7.5469 71.9508 7.5635 71.1539 6.74994C70.7803 6.36807 70.4649 6.35977 70.0415 6.65863C69.3524 7.15672 68.6219 7.60501 67.9246 8.1031C67.302 8.54309 66.6793 8.55969 66.0401 8.16951C65.376 7.76274 64.6454 7.51369 63.9149 7.27294C63.3836 7.09861 63.0515 6.76655 62.8855 6.24355C62.6531 5.52131 62.5701 4.77417 62.4372 4.03533C62.1882 2.64066 62.1965 2.64896 60.8101 2.74028C60.4698 2.76518 60.3037 2.88141 60.2456 3.23007C60.0713 4.20966 59.8471 5.18094 59.6562 6.15223C59.54 6.73334 59.2079 7.08201 58.6434 7.24804C57.8631 7.48048 57.0993 7.76274 56.3937 8.17782C55.7628 8.54309 55.165 8.50158 54.5673 8.0782C53.8534 7.5801 53.1312 7.09031 52.3923 6.61712C52.1931 6.49259 51.9772 6.21034 51.695 6.45939C51.3961 6.72504 51.0392 6.94088 51.172 7.46388C51.3546 8.16951 51.5705 8.89175 51.6037 9.61399C51.6535 10.7762 52.218 11.3739 53.2972 11.6977C53.8368 11.8554 54.2187 11.8554 54.6919 11.5234C56.2442 10.4358 57.7302 9.1657 59.7973 9.23212C59.8969 9.23212 59.9966 9.174 60.0962 9.1574C60.5362 9.09099 60.9762 9.02458 61.2916 8.98307V9.00797ZM62.6697 12.1045C63.8983 13.715 63.9315 14.6198 62.8606 16.2553C62.4621 16.8696 62.072 17.4922 61.6403 18.0733C61.192 18.6793 61.0675 19.1857 61.3995 19.9744C61.7399 20.7962 62.1467 21.203 63.0017 21.3524C63.533 21.4437 63.9315 21.4188 64.3549 21.0951C65.4756 20.2483 66.1812 19.1691 66.422 17.7744C66.8537 15.2674 65.1269 12.586 62.6697 12.1045Z" fill="#BF8CCF"/>
<path d="M47.2289 78.2099C42.0238 78.2099 36.8104 78.2099 31.6054 78.2099C30.0364 78.2099 29.9035 78.0522 29.4469 76.5662C28.6915 74.0841 27.687 71.7181 25.9852 69.7091C25.9105 69.6178 25.8192 69.5265 25.7444 69.4352C25.0554 68.605 24.3083 68.3643 23.2042 68.796C20.2488 69.9416 17.1523 70.6638 14.1139 71.5521C11.4574 72.3324 8.53527 70.9212 7.69681 68.1235C7.25683 66.6541 7.05759 65.1848 7.46437 63.6822C7.53078 63.4497 7.56398 63.2007 7.59719 62.9599C7.69681 62.2211 7.58059 61.5819 6.79194 61.2415C6.55119 61.1419 6.34365 60.9593 6.11951 60.8264C4.84107 60.0959 4.4675 59.2159 4.95729 57.8213C5.10672 57.3979 5.04861 57.1239 4.69994 56.8832C4.68334 56.8749 4.66673 56.8583 4.65013 56.8417C3.08113 55.5217 2.98982 55.0485 3.92789 53.1973C4.21845 52.6245 4.60032 52.0932 4.74145 51.4373C4.87427 50.823 4.69994 50.408 4.16864 50.1091C3.38829 49.6691 2.59964 49.2457 1.8442 48.7808C-0.0983717 47.5937 -0.554959 45.6677 0.706881 43.7667C1.59515 42.4301 2.60794 41.1849 3.52942 39.8649C5.0154 37.7314 6.27724 35.4485 7.43116 33.1158C7.6221 32.7256 7.58059 32.4101 7.28173 32.0698C6.70892 31.4056 5.95348 30.9324 5.45538 30.2019C4.62523 28.9982 4.37618 27.7612 4.94069 26.35C5.37237 25.2708 5.83726 24.2165 6.29384 23.1539C6.86665 21.8422 7.0991 20.4226 7.44776 19.0529C8.51867 14.8855 10.5193 11.2411 13.4498 8.1031C15.6248 5.77866 18.3311 4.27607 21.2948 3.22177C24.8894 1.94333 28.6334 1.32071 32.394 0.722997C35.9222 0.150188 39.4587 -0.0822565 43.02 0.025664C43.5679 0.0422672 44.1158 0.067172 44.5475 0.507156C44.9792 0.947139 45.1037 1.45354 44.863 2.01804C44.6388 2.54934 44.2321 2.8648 43.6426 2.87311C43.1778 2.88141 42.7046 2.88971 42.2397 2.8565C38.9689 2.62406 35.7561 3.13045 32.5351 3.57044C30.2356 3.8859 27.9693 4.34248 25.7112 4.87379C22.4487 5.64583 19.3107 6.77485 16.6874 8.97477C14.7366 10.6102 13.2672 12.6607 12.0717 14.9021C10.8431 17.2016 10.179 19.6838 9.59787 22.2075C9.29071 23.544 8.7096 24.781 8.1451 26.0179C8.05378 26.2171 7.95416 26.4247 7.87945 26.6322C7.32324 28.1348 7.40626 28.4254 8.6764 29.4216C9.59787 30.1438 10.1624 31.0653 10.3616 32.2275C10.4861 32.9663 10.3367 33.6471 10.0213 34.2946C8.17 38.1133 5.97008 41.7079 3.29697 45.0036C3.23056 45.0783 3.18075 45.1697 3.12264 45.2527C2.83209 45.676 2.84869 46.0164 3.31358 46.3319C3.986 46.7885 4.70824 47.1786 5.43048 47.5439C7.73832 48.7227 8.20321 50.9642 7.15721 53.2637C7.04929 53.5044 6.93306 53.7535 6.77533 53.961C6.40176 54.4591 6.54289 54.7912 7.03268 55.0983C7.35645 55.3059 7.6553 55.5549 7.94586 55.8123C8.60998 56.4183 8.6764 57.0741 8.1783 57.8213C7.89051 58.2529 7.9763 58.5933 8.43565 58.8424C9.99635 59.6725 10.8016 61.4906 10.4114 63.4414C10.1707 64.6452 9.97144 65.8323 10.3699 67.0526C10.785 68.3311 11.7646 69.0616 12.9019 68.8458C13.5577 68.7212 14.2136 68.5635 14.8611 68.3975C18.9787 67.3266 22.98 65.9236 26.9814 64.4957C28.7247 63.8731 30.5012 63.3667 32.1948 62.6113C33.2574 62.1381 34.2702 61.5736 35.1003 60.7434C35.6565 60.1955 35.9637 59.5231 36.0467 58.7427C36.138 57.8462 36.7606 57.1986 37.4912 57.2152C38.2964 57.2318 38.919 57.9541 38.8858 58.9088C38.8194 60.6438 38.0059 62.0136 36.7191 63.126C34.9343 64.6784 32.7759 65.5251 30.5843 66.2972C29.779 66.5794 28.9655 66.8451 28.1519 67.0941C27.7036 67.2353 27.7285 67.4262 27.9942 67.7333C29.3639 69.3106 30.4182 71.0872 31.2401 73.0049C31.4891 73.586 31.705 74.1754 31.8876 74.7814C32.0453 75.2878 32.3276 75.4704 32.8672 75.4621C35.9139 75.404 38.9689 75.3625 42.0155 75.3542C48.1421 75.3376 54.2604 75.3376 60.3869 75.3376C60.5696 75.3376 60.7522 75.3376 60.9348 75.3376C61.2171 75.3293 61.2337 75.1965 61.1009 74.9806C58.5938 70.9378 57.7221 66.3885 57.0995 61.7811C56.6346 58.3609 56.892 54.9572 57.855 51.6366C58.793 48.3907 60.4866 45.5349 62.5121 42.8535C63.6993 41.2845 64.8947 39.7155 65.8162 37.9556C66.4969 36.6688 66.9535 35.3074 67.352 33.9127C67.684 32.7505 68.8794 32.3686 69.7179 33.149C70.1496 33.5557 70.216 34.0704 70.0915 34.61C69.6515 36.5277 68.9044 38.3209 67.9331 40.0227C66.7376 42.1147 65.1935 43.9576 63.7989 45.9085C61.6986 48.8639 60.3786 52.1264 59.9137 55.7293C59.6813 57.5556 59.673 59.382 59.9054 61.2C60.2043 63.5161 60.6194 65.8157 61.242 68.0737C61.8812 70.4065 62.8359 72.5815 64.2057 74.5904C64.5377 75.0719 64.7785 75.6199 64.9943 76.1677C65.3679 77.0643 64.8947 77.9194 63.9483 78.1186C63.6744 78.1767 63.3838 78.1767 63.1016 78.1767C57.8134 78.1767 52.5253 78.1767 47.2372 78.1767V78.2016L47.2289 78.2099Z" fill="#BF8CCF"/>
<path d="M27.72 6.86572C28.5917 6.86572 29.1811 7.40533 29.2475 8.16077C29.3139 8.94112 28.8324 9.50563 27.994 9.69656C26.2673 10.0784 24.5737 10.5516 22.93 11.2324C20.2652 12.3282 18.4223 14.2707 17.011 16.7114C15.9899 18.4713 15.3424 20.3641 14.9522 22.3482C14.8028 23.1285 14.7032 23.1783 13.9311 23.0206C13.4496 22.921 12.9764 22.8131 12.5032 22.7134C12.0965 22.6304 11.9802 22.3897 12.0633 21.9995C12.8519 18.297 14.3213 14.9266 16.845 12.0625C18.3725 10.3358 20.2984 9.18186 22.4236 8.35171C24.0175 7.72909 25.6446 7.23099 27.3299 6.92383C27.4876 6.89063 27.6536 6.87403 27.72 6.85742V6.86572Z" fill="#BF8CCF"/>
<path d="M56.1197 26.1342C56.2608 31.0321 52.0353 35.3573 46.9381 35.3158C41.7995 35.2742 37.6902 31.331 37.6902 26.0263C37.6902 20.871 41.9074 16.8613 46.9797 16.853C52.0353 16.8447 56.3189 21.2114 56.1197 26.1342ZM53.2806 26.1176C53.4051 22.7555 50.624 19.7337 46.9298 19.7005C43.4432 19.6756 40.6372 22.5147 40.5791 25.9931C40.5127 29.6126 43.3851 32.4102 46.88 32.4683C50.3916 32.5264 53.3885 29.5462 53.2806 26.1093V26.1176Z" fill="#BF8CCF"/>
<path d="M46.9464 24.6812C47.7433 24.6812 48.3078 25.2706 48.3078 26.0841C48.3078 26.906 47.7101 27.4871 46.8634 27.4705C46.1079 27.4539 45.477 26.7981 45.4936 26.0509C45.5102 25.3453 46.2158 24.6812 46.9464 24.6895V24.6812Z" fill="#BF8CCF"/>
</svg>
