<svg width="83" height="75" viewBox="0 0 83 75" fill="none" xmlns="http://www.w3.org/2000/svg">
<path d="M0.0253928 28.3279C0.0253928 20.1116 0.0338153 11.887 0.0169702 3.67071C0.0169702 2.38271 0.480208 1.39777 1.51618 0.656963C2.13944 0.210794 2.85535 0.0424283 3.57969 0.03401C5.35684 -0.00808145 7.13399 -0.00808145 8.91113 0.03401C10.1829 0.0592648 10.8315 1.10313 10.2503 2.0544C10.0313 2.41638 9.70285 2.57633 9.29857 2.63526C8.29629 2.77837 7.28559 2.68577 6.28331 2.70261C5.42422 2.71944 4.57354 2.70261 3.71445 2.71102C3.01538 2.72786 2.6111 3.14036 2.56899 3.83066C2.55214 4.04111 2.56899 4.25999 2.56899 4.47045C2.56899 20.4147 2.56899 36.3673 2.56899 52.3116C2.56899 52.522 2.56899 52.7409 2.56899 52.9514C2.6111 53.7174 2.948 54.0794 3.71445 54.1467C4.00924 54.172 4.31245 54.1636 4.61566 54.1636C25.2424 54.1636 45.8691 54.1636 66.4874 54.1636C66.8074 54.1636 67.1275 54.1552 67.4475 54.172C68.1298 54.2141 68.5677 54.635 68.6435 55.2916C68.7193 55.9062 68.3487 56.487 67.717 56.6554C67.4138 56.7396 67.0854 56.7564 66.7653 56.7564C64.8365 56.7648 62.9078 56.7733 60.979 56.7564C60.4316 56.7564 60.1873 56.9248 60.2294 57.4888C60.2631 58.0192 60.2379 58.5579 60.2294 59.0967C60.2126 60.9319 59.0082 62.161 57.1721 62.1694C53.7441 62.1862 50.3162 62.1694 46.8882 62.1694C46.6776 62.1694 46.4587 62.1694 46.2481 62.1694C45.5659 62.1778 45.5574 62.2199 45.8607 62.8007C47.2335 65.4609 48.5896 68.1295 49.954 70.7897C50.3077 71.4716 50.6615 72.1535 51.0068 72.8438C51.2595 73.3489 51.3521 73.8624 50.9984 74.3591C50.4678 75.1083 49.6002 75.1672 48.9686 74.5106C48.4716 73.9886 48.2526 73.2983 47.9326 72.6754C46.2144 69.3754 44.5215 66.067 42.837 62.7502C42.6264 62.3293 42.3737 62.161 41.8937 62.161C37.9351 62.1778 33.9681 62.1778 30.0095 62.161C29.5378 62.161 29.2599 62.3377 29.0493 62.7418C27.8702 65.0737 26.6826 67.3887 25.495 69.7122C24.7539 71.1601 24.0127 72.608 23.2462 74.0392C22.7577 74.9399 22.1008 75.1841 21.3596 74.8136C20.7111 74.4853 20.5005 73.6014 20.9048 72.7764C21.4017 71.7831 21.9323 70.8065 22.4377 69.8132C23.6252 67.4897 24.8128 65.1663 25.992 62.8344C26.3036 62.2199 26.2615 62.1694 25.5456 62.1694C21.9492 62.1694 18.3528 62.1694 14.7479 62.1694C13.6614 62.1694 12.8023 61.7569 12.1706 60.873C11.8759 60.4605 11.7074 60.0143 11.7158 59.5008C11.7158 58.8357 11.6737 58.1707 11.7158 57.5141C11.7579 56.8995 11.4968 56.748 10.9325 56.7564C8.55739 56.7817 6.17382 56.7312 3.79867 56.7733C1.66778 56.8238 -0.0167198 55.3001 0.000125239 52.9934C0.0675053 44.7772 0.0253928 36.5525 0.0253928 28.3363V28.3279ZM35.9979 59.4671C42.6348 59.4671 49.2718 59.4671 55.9087 59.4671C57.7364 59.4671 57.509 59.7028 57.5258 57.876C57.5258 56.7817 57.5258 56.7817 56.4393 56.7817C42.9465 56.7817 29.462 56.7817 15.9692 56.7817C14.1162 56.7817 14.3521 56.546 14.3436 58.4317C14.3436 59.4587 14.3605 59.4755 15.3796 59.4755C22.2524 59.4755 29.1251 59.4755 35.9979 59.4755V59.4671Z" fill="#BF8CCF"/>
<path d="M79.1549 32.4019C79.1043 36.5437 77.8747 39.9784 75.3395 42.9163C75.0194 43.2868 75.0279 43.5898 75.2721 44.0023C76.9398 46.8393 78.5737 49.7015 80.2245 52.5469C80.7467 53.456 81.2858 54.3568 81.7911 55.2744C83.0629 57.581 82.2965 60.4264 80.0898 61.7144C77.8747 63.0108 74.9099 62.1942 73.6213 59.9465C71.4567 56.1836 69.2753 52.429 67.1191 48.666C66.9001 48.2872 66.6559 48.1441 66.2432 48.203C65.7126 48.2872 65.1904 48.3714 64.6598 48.4387C62.4446 48.7165 60.3222 48.304 58.225 47.6474C55.5466 46.8056 53.2978 45.2735 51.4533 43.1857C49.4908 40.9633 48.2696 38.3789 47.6884 35.4409C47.1409 32.6376 47.4526 29.9522 48.3875 27.3088C49.693 23.6048 52.1018 20.8099 55.4961 18.8569C58.0481 17.3921 60.8107 16.7355 63.7333 16.8197C67.4813 16.9291 70.7913 18.1918 73.6381 20.65C76.5439 23.1502 78.2874 26.3071 78.9359 30.0616C79.0875 30.9203 79.1801 31.7958 79.1465 32.4019H79.1549ZM63.3374 45.8375C70.5892 45.8543 76.5692 39.8942 76.4934 32.5534C76.426 25.28 70.724 19.4714 63.2785 19.463C55.8498 19.463 50.1057 25.3221 50.1057 32.705C50.1057 39.9279 55.9677 45.8291 63.3374 45.8375ZM77.622 59.6098C79.2728 59.6098 80.2077 58.2039 79.5676 56.8149C79.3991 56.4445 79.2054 56.091 78.9949 55.7374C77.8073 53.6833 76.6197 51.6293 75.4321 49.5752C74.7162 48.3377 74.0003 47.0918 73.276 45.8627C73.0991 45.5513 72.897 45.2482 72.4758 45.5513C71.642 46.149 70.7661 46.6877 69.8059 47.075C69.528 47.1844 69.4353 47.3359 69.629 47.6643C71.7178 51.2757 73.7813 54.8956 75.8617 58.507C76.2744 59.2226 76.864 59.6687 77.622 59.6098Z" fill="#BF8CCF"/>
<path d="M52.3291 15.1782C51.3942 14.7657 50.973 15.5486 50.4677 16.2641C48.7495 18.6886 47.006 21.1047 45.2542 23.5039C44.9594 23.908 44.9173 24.2026 45.1784 24.6488C45.9111 25.8947 45.6837 27.9066 44.7235 29.0515C43.5781 30.4237 41.8094 30.9793 40.2933 30.4405C38.2972 29.7334 37.3454 28.3276 37.4297 26.1809C37.4381 25.8947 37.3875 25.701 37.1096 25.5495C35.9473 24.9097 34.7934 24.2531 33.648 23.5881C33.3363 23.4113 33.0836 23.4197 32.7636 23.6217C31.2475 24.573 29.6978 24.6151 28.1733 23.6638C27.7606 23.4029 27.4406 23.4281 27.0531 23.6554C26.0593 24.2447 25.0654 24.834 24.0463 25.3812C23.6083 25.6169 23.4483 25.9199 23.4736 26.4082C23.6083 28.8158 21.3848 30.9288 18.8833 30.5921C17.4178 30.3985 16.3481 29.624 15.6743 28.3191C14.9247 26.8628 15.0763 25.4401 15.9944 24.1352C17.3336 22.2159 19.8435 21.795 21.7217 23.1251C22.0081 23.3271 22.2355 23.3608 22.5387 23.184C23.5915 22.5694 24.6527 21.9717 25.7224 21.3825C26.1435 21.1468 26.3035 20.8269 26.3035 20.3386C26.3372 17.409 28.8471 15.5233 31.6518 16.2978C33.2605 16.7356 34.5576 18.3771 34.5155 20.0608C34.4986 20.8269 34.7766 21.2225 35.4335 21.5424C36.3937 22.0138 37.3117 22.5694 38.2214 23.1251C38.5583 23.3271 38.7941 23.3271 39.1478 23.1082C40.0743 22.5189 41.0766 22.1738 42.1968 22.4179C42.6432 22.5189 42.879 22.3001 43.098 21.9886C44.4288 20.1281 45.7595 18.2593 47.0903 16.3988C47.663 15.5991 48.2189 14.7909 48.8169 14.008C49.0864 13.6545 49.1201 13.3683 48.9011 12.9642C48.0336 11.3815 48.3284 9.50427 49.6254 8.19102C50.9899 6.802 52.8344 6.54103 54.6284 7.4923C56.0265 8.22469 56.8941 10.1104 56.5993 11.7688C56.2455 13.7976 54.561 15.1866 52.3291 15.1782ZM19.3802 25.0697C18.5464 25.0697 17.9653 25.6337 17.9484 26.4587C17.94 27.2921 18.5717 27.9656 19.3634 27.9656C20.172 27.9656 20.8289 27.3005 20.8205 26.4839C20.8205 25.7347 20.1383 25.0781 19.3718 25.0697H19.3802ZM52.5649 9.64738C51.7563 9.63896 51.1331 10.2282 51.1162 11.028C51.0994 11.8025 51.7395 12.5012 52.4975 12.518C53.2387 12.5349 53.9715 11.8614 53.9967 11.129C54.022 10.3124 53.3903 9.6558 52.5649 9.63896V9.64738ZM31.8203 20.246C31.8203 19.3621 31.2644 18.7896 30.3969 18.7812C29.6557 18.7812 28.965 19.4799 28.965 20.2292C28.965 20.97 29.6641 21.6687 30.4137 21.6687C31.2223 21.6687 31.8203 21.071 31.8287 20.246H31.8203ZM42.8706 26.4587C42.8622 25.6084 42.2979 25.0528 41.4556 25.0697C40.6639 25.0865 40.0575 25.701 40.0575 26.5176C40.0575 27.2837 40.7229 27.9656 41.4809 27.9656C42.3147 27.9656 42.879 27.351 42.8706 26.4671V26.4587Z" fill="#BF8CCF"/>
<path d="M26.6573 40.0796C26.6573 37.4025 26.6573 34.7339 26.6573 32.0569C26.6573 30.8531 27.0869 30.4238 28.2745 30.4154C29.7316 30.4154 31.1887 30.4069 32.6373 30.4154C33.648 30.4154 34.0355 30.7605 34.1786 31.7539C34.2292 32.0906 34.246 32.4358 34.246 32.7725C34.246 37.6888 34.246 42.6135 34.246 47.5297C34.246 47.5971 34.246 47.656 34.246 47.7234C34.2039 49.2134 33.9007 49.9458 32.1236 49.8616C30.8433 49.8027 29.5547 49.8616 28.2745 49.8448C27.188 49.8448 26.6573 49.306 26.6573 48.22C26.6573 45.5009 26.6573 42.7902 26.6573 40.0711V40.0796ZM31.5424 40.2142C31.5424 38.2696 31.5424 36.3166 31.5424 34.372C31.5424 33.547 31.1185 33.1373 30.2706 33.1429C29.3947 33.1429 29.3778 33.1681 29.3778 34.0521C29.3778 37.9666 29.3778 41.8811 29.3778 45.7956C29.3778 47.2688 29.2262 47.1257 30.7844 47.1677C31.3824 47.1846 31.5592 46.9573 31.5508 46.3764C31.5256 44.3224 31.5424 42.2683 31.5424 40.2142Z" fill="#BF8CCF"/>
<path d="M37.7161 43.2279C37.7161 41.5358 37.7161 39.8437 37.7161 38.1516C37.7161 37.1246 38.2467 36.5269 39.2658 36.5016C40.7397 36.4596 42.2221 36.468 43.696 36.5016C44.6309 36.5185 45.2879 37.1583 45.2963 38.0927C45.3132 41.4937 45.3216 44.8947 45.2963 48.3041C45.2879 49.3227 44.6731 49.853 43.6455 49.8615C42.2137 49.8615 40.7734 49.8615 39.3416 49.8615C38.2551 49.8615 37.7245 49.3311 37.7161 48.2452C37.7161 46.5783 37.7161 44.9031 37.7161 43.2363V43.2279ZM40.3355 43.1689C40.3355 44.0023 40.3355 44.8357 40.3355 45.6692C40.3523 47.3276 40.0912 47.1255 41.8599 47.1592C42.4158 47.1676 42.6095 46.974 42.6011 46.4184C42.5759 44.5411 42.6011 42.6554 42.5843 40.7781C42.5674 38.985 42.8875 39.246 40.9672 39.2039C40.4955 39.1955 40.3186 39.3639 40.327 39.8353C40.3523 40.9465 40.327 42.0577 40.327 43.1689H40.3355Z" fill="#BF8CCF"/>
<path d="M23.1115 43.2364C23.1115 44.9033 23.1115 46.5701 23.1115 48.2369C23.1115 49.3734 22.6398 49.8448 21.528 49.8532C20.0962 49.8532 18.6644 49.8532 17.2241 49.8532C16.1208 49.8532 15.607 49.3397 15.607 48.2369C15.5986 44.878 15.5986 41.5191 15.607 38.1686C15.607 37.0995 16.1461 36.5271 17.2157 36.5018C18.6475 36.4681 20.0794 36.4681 21.5196 36.5018C22.5977 36.5271 23.1115 37.0995 23.1199 38.1686C23.1199 39.8607 23.1199 41.5444 23.1199 43.2364H23.1115ZM20.4921 43.228C20.4921 42.3525 20.4921 41.477 20.4921 40.6015C20.4837 39.0273 20.6689 39.2378 19.0855 39.1957C18.4875 39.1788 18.3022 39.3893 18.3106 39.9702C18.3359 41.8727 18.3106 43.7752 18.3191 45.6693C18.3275 47.2772 18.0832 47.1341 19.8604 47.1509C20.332 47.1509 20.5005 46.9489 20.4921 46.4943C20.4752 45.4084 20.4921 44.314 20.4921 43.228Z" fill="#BF8CCF"/>
<path d="M52.5564 49.8532C51.7647 49.8532 50.973 49.8701 50.1813 49.8532C49.4148 49.828 48.8337 49.3397 48.8084 48.5989C48.7663 47.3783 48.741 46.1576 48.8253 44.9454C48.8926 43.8594 49.9455 43.3627 50.8214 43.9183C51.2004 44.1541 51.3773 44.4992 51.3857 44.937C51.3941 45.4505 51.4194 45.964 51.3857 46.4775C51.3604 46.9742 51.5457 47.1762 52.0511 47.1594C52.8428 47.1341 53.6345 47.1426 54.4262 47.1594C54.8726 47.1678 55.3527 47.1594 55.7233 47.4456C56.1697 47.7908 56.4392 48.2453 56.2623 48.843C56.077 49.4744 55.6306 49.8111 54.999 49.8364C54.1904 49.8701 53.3734 49.8448 52.5564 49.8448V49.8532Z" fill="#BF8CCF"/>
<path d="M63.4469 41.4937C67.5908 41.6452 71.4651 38.2527 72.1137 33.8331C72.3663 32.1241 71.9789 30.4742 71.3809 28.8663C71.0524 27.9824 71.4314 27.2415 72.2484 27.0479C72.897 26.888 73.5034 27.1742 73.7813 27.7887C75.3395 31.2571 75.2974 34.717 73.4865 38.0422C71.2125 42.2093 67.5824 44.297 62.8573 44.1623C58.983 44.0613 55.8498 42.3019 53.6936 39.0524C51.5206 35.7693 51.0658 32.1915 52.4977 28.5211C54.0474 24.5645 56.9868 22.1569 61.1728 21.3067C64.4492 20.6416 67.4055 21.4329 70.0923 23.3439C70.7576 23.8153 70.9345 24.4803 70.5976 25.1286C70.3028 25.701 69.5953 25.9115 68.8542 25.6252C68.6773 25.5579 68.5004 25.4653 68.3404 25.3558C64.0702 22.3 58.0649 23.8153 55.5634 28.2602C53.6263 31.7032 54.1822 36.2323 57.0121 38.9682C58.7472 40.6435 60.8191 41.5442 63.4301 41.4937H63.4469Z" fill="#BF8CCF"/>
<path d="M71.9367 3.38415C71.9367 2.79487 71.7598 2.24768 71.4482 1.74258C70.6649 0.454587 69.4436 0.0168366 68.0118 0.00841829C60.002 0.00841829 51.9922 0.00841829 43.9824 0.00841829C43.7719 0.00841829 43.5529 0 43.3423 0.00841829C43.3002 0.00841829 43.2665 0.00841829 43.2244 0H28.704C28.4682 0.0252549 28.106 0 27.5248 0.00841829C23.2378 0.00841829 18.9592 0.00841829 14.6721 0.00841829C14.2847 0.00841829 13.8972 0.00841829 13.5351 0.151529C12.9623 0.387241 12.6339 0.799737 12.676 1.43953C12.7097 2.01197 13.1729 2.51707 13.7709 2.60125C14.1752 2.66018 14.5795 2.68543 14.9837 2.68543C23.7684 2.68543 32.5447 2.68543 41.3293 2.68543C50.114 2.68543 58.8902 2.68543 67.6749 2.68543C69.1489 2.68543 69.2247 2.7612 69.2247 4.25965C69.2247 7.55962 69.2247 10.8512 69.2247 14.1511C69.2247 14.5131 69.2247 14.8751 69.351 15.2287C69.6037 15.9863 70.1511 16.382 70.8249 16.2725C71.5408 16.1631 71.9451 15.6833 71.9451 14.8667C71.9451 11.0364 71.9451 7.20605 71.9451 3.36731L71.9367 3.38415Z" fill="#BF8CCF"/>
</svg>
