<svg width="81" height="82" viewBox="0 0 81 82" fill="none" xmlns="http://www.w3.org/2000/svg">
<path d="M39.5236 76.7169C37.8885 76.8881 36.3133 76.2118 34.7039 75.8094C31.6734 75.0475 28.6685 74.2171 25.6466 73.4038C24.2426 73.0272 22.8387 72.6591 21.4433 72.2481C20.5187 71.9742 20.0136 72.7019 19.3459 73.0443C19.1319 73.1556 19.3287 73.3953 19.4058 73.5665C19.6455 74.1229 20.0393 74.6023 20.2362 75.1845C20.7413 76.674 20.3732 78.1208 19.089 78.994C17.7536 79.91 16.341 80.7319 14.8429 81.3739C13.2677 82.0502 11.5727 81.3568 10.7338 79.8587C9.07296 76.8881 7.36937 73.9346 5.69147 70.9726C4.32174 68.5585 2.97771 66.1358 1.61655 63.7131C1.17139 62.9169 0.666303 62.155 0.306751 61.3246C-0.429474 59.6296 0.195461 57.9346 1.79632 57.0442C2.87498 56.445 3.95363 55.8372 5.02373 55.2208C6.77868 54.2106 8.79046 54.7671 9.76639 56.5477C10.3656 57.6435 10.3656 57.6435 11.4272 57.0442C14.3464 55.3749 17.2485 53.6884 20.1763 52.0276C22.462 50.735 24.8676 49.9303 27.5299 50.5124C29.1222 50.8634 30.6204 51.5226 32.1528 52.0619C34.9179 53.0378 37.683 54.0052 40.5765 54.5188C43.4701 55.0325 45.3791 57.8318 44.7542 60.6997C44.7114 60.9137 44.4888 61.1791 44.7542 61.3503C44.9511 61.4787 45.148 61.2476 45.3363 61.1448C49.805 58.5595 54.2566 55.957 58.7425 53.3974C60.6001 52.3358 62.5606 51.6082 64.7864 51.6167C67.971 51.6167 70.3508 54.2706 69.8286 57.6949C69.5889 59.2615 68.8441 60.4857 67.4659 61.3246C64.3754 63.208 61.2936 65.117 58.2117 67.0261C55.6092 68.6355 53.0153 70.2449 50.4043 71.8458C48.3497 73.1042 46.3037 74.3712 44.232 75.5868C42.8195 76.4172 41.2785 76.8196 39.5407 76.7254L39.5236 76.7169ZM25.8606 53.2433C23.9601 53.1577 22.4277 54.0137 20.921 54.8612C18.0703 56.4707 15.2538 58.1486 12.4202 59.7837C11.9751 60.0405 11.8381 60.2374 12.1206 60.7339C13.7728 63.6103 15.3822 66.5124 17.0173 69.3974C17.7108 70.613 17.7793 70.6815 18.9692 69.8682C20.0136 69.1577 21.0152 69.1149 22.1709 69.4488C24.3796 70.0908 26.6054 70.673 28.8226 71.2722C31.7333 72.0512 34.6525 72.8046 37.5632 73.6093C39.5578 74.1572 41.4412 73.9346 43.1961 72.8731C46.7916 70.6901 50.3615 68.4643 53.9399 66.2556C57.8693 63.8329 61.8072 61.4188 65.7366 58.9875C66.8923 58.277 67.269 57.0956 66.7981 55.7772C66.4471 54.8013 65.3856 54.2877 64.1015 54.4503C62.8773 54.6044 61.7302 55.0068 60.6686 55.5975C58.9822 56.5306 57.3128 57.5065 55.6435 58.4739C52.7927 60.1261 49.9591 61.8126 47.0998 63.4477C45.3706 64.4407 43.4958 64.9886 41.4925 64.7746C37.7601 64.3722 34.2159 63.1481 30.6118 62.1978C30.1495 62.078 29.7215 61.8297 29.5246 61.3417C29.302 60.7853 29.3791 60.246 29.7472 59.8094C30.1067 59.3899 30.6289 59.2615 31.1768 59.407C33.3941 59.9977 35.6199 60.597 37.8371 61.1962C38.5733 61.3931 39.3096 61.59 40.0715 61.5472C41.0046 61.4958 41.6894 60.9394 41.9035 60.0662C42.2116 58.8163 41.4583 57.6435 40.1057 57.3695C39.1298 57.1727 38.1624 56.9415 37.195 56.6932C34.6268 56.0255 32.1528 55.0838 29.653 54.2363C28.386 53.8083 27.179 53.132 25.8435 53.2518L25.8606 53.2433ZM6.69307 57.6949C6.61603 57.7205 6.46193 57.7462 6.33352 57.8233C5.55449 58.2513 4.78403 58.6965 4.005 59.1159C2.68664 59.8265 2.66952 59.8693 3.43999 61.162C3.46567 61.1962 3.49135 61.2304 3.50847 61.2733C4.93812 63.7987 6.36776 66.3327 7.79741 68.8581C9.56949 71.9913 11.333 75.1331 13.0965 78.2663C13.3277 78.6687 13.6273 78.8314 14.0639 78.5831C15.0912 78.0181 16.1185 77.4531 17.1286 76.8795C17.5224 76.6569 17.6508 76.3316 17.394 75.895C17.0601 75.3129 16.7605 74.7136 16.4352 74.1229C14.997 71.5975 13.5502 69.0807 12.112 66.5552C10.5197 63.7473 8.94455 60.9308 7.36081 58.1143C7.22384 57.8746 7.07831 57.6777 6.69307 57.6949Z" fill="#BF8CCF"/>
<path d="M38.9329 18.187C39.866 18.187 40.7992 18.1785 41.7323 18.187C42.2117 18.1956 42.4856 18.0158 42.6312 17.5364C43.1191 15.9184 43.6328 14.309 44.1464 12.691C44.4118 11.8435 44.8142 11.0816 45.6103 10.6108C47.3824 9.54067 49.5054 10.3882 50.1389 12.4C50.6697 14.095 51.2518 15.7815 51.7826 17.4765C51.9538 18.0415 52.2877 18.2042 52.8356 18.1956C54.6162 18.1699 56.3969 18.1528 58.1775 18.1956C60.3862 18.2384 61.7388 20.156 61.0881 22.2534C60.857 23.0067 60.2834 23.4776 59.6842 23.9142C58.3573 24.8901 57.0218 25.866 55.6692 26.8077C55.1555 27.1587 55.0271 27.5354 55.224 28.1261C55.789 29.7869 56.3112 31.4648 56.8677 33.1341C57.3043 34.4268 56.9533 35.7195 55.9175 36.5242C54.8302 37.3717 53.4263 37.4402 52.2963 36.644C50.7896 35.5825 49.2914 34.5038 47.819 33.3995C47.3824 33.0742 47.0485 33.0485 46.6034 33.3824C45.1052 34.4953 43.59 35.5825 42.0747 36.6697C41.1416 37.3374 39.7205 37.3631 38.8131 36.7639C37.6659 36.0105 37.0924 34.8291 37.4433 33.5793C37.9227 31.8671 38.4878 30.1806 39.0613 28.5027C39.4722 27.3042 39.4894 27.3214 38.4364 26.568C37.041 25.575 35.6456 24.5734 34.2844 23.5375C33.2999 22.7842 32.9061 21.4915 33.24 20.4128C33.6424 19.1116 34.6525 18.3069 35.9966 18.1956C36.0651 18.1956 36.125 18.187 36.1935 18.187C37.1095 18.187 38.0169 18.187 38.9329 18.187ZM39.4979 21.0463C38.522 21.0463 37.5461 21.0463 36.5701 21.0463C36.4246 21.0463 36.2363 21.0292 36.202 21.2261C36.1764 21.3716 36.2962 21.4572 36.3989 21.5428C36.5188 21.637 36.6472 21.7141 36.767 21.8082C38.171 22.827 39.5835 23.8371 40.9704 24.8815C42.186 25.789 42.5627 27.0817 42.0833 28.5284C41.5525 30.1293 40.9961 31.7301 40.4739 33.3396C40.3882 33.6135 40.1229 33.9816 40.3882 34.1785C40.6622 34.3754 40.919 33.9987 41.1587 33.8361C42.6568 32.7574 44.1122 31.6274 45.6445 30.6001C46.689 29.9067 47.8447 29.9238 48.8891 30.6515C50.4557 31.7387 51.9881 32.8773 53.529 33.9902C53.6917 34.11 53.8629 34.3583 54.0854 34.1785C54.2652 34.033 54.0854 33.819 54.0426 33.6392C53.5033 31.8072 52.7928 30.0351 52.3134 28.186C51.9624 26.8334 52.3476 25.7462 53.452 24.9158C54.9158 23.8286 56.3883 22.7585 57.8607 21.6884C58.032 21.56 58.3059 21.4572 58.2289 21.209C58.1518 20.9522 57.8522 21.0463 57.6553 21.0463C55.9431 21.0463 54.2224 21.0463 52.5103 21.0463C50.6697 21.0463 49.6339 20.2245 49.1031 18.4439C48.6151 16.8259 48.0758 15.225 47.545 13.6156C47.4851 13.4272 47.4765 13.1105 47.2112 13.1191C46.9543 13.1276 46.9715 13.4444 46.903 13.6327C46.3208 15.4048 45.7558 17.1854 45.1651 18.9489C44.6943 20.3786 43.6156 20.9778 42.186 21.0292C41.2957 21.0634 40.4054 21.0292 39.515 21.0292L39.4979 21.0463Z" fill="#BF8CCF"/>
<path d="M63.2796 30.2921C63.9303 30.2921 64.5809 30.2749 65.2315 30.2921C65.6938 30.3092 65.9249 30.138 66.0619 29.6757C66.43 28.4258 66.858 27.2016 67.2775 25.9689C67.6713 24.8132 68.6729 24.077 69.8201 24.0855C70.933 24.0855 71.926 24.8132 72.3112 25.9432C72.7307 27.176 73.1588 28.4087 73.5269 29.65C73.6724 30.1465 73.9207 30.2921 74.4086 30.2835C75.6671 30.2578 76.9255 30.2664 78.1839 30.2835C79.5108 30.2921 80.4696 30.9684 80.8549 32.1583C81.2315 33.314 80.872 34.3927 79.8105 35.1888C78.766 35.9678 77.7216 36.7469 76.6515 37.4831C76.2663 37.7485 76.2321 37.9967 76.369 38.4077C76.8056 39.6832 77.2165 40.9588 77.6103 42.2429C77.9613 43.4071 77.5504 44.5286 76.5659 45.2135C75.7099 45.8042 74.4172 45.7785 73.5097 45.1279C72.4825 44.4002 71.4552 43.6811 70.4536 42.9106C69.9656 42.5339 69.5804 42.5853 69.1181 42.9363C68.1507 43.6725 67.1662 44.3745 66.1732 45.0851C65.1887 45.7956 63.896 45.8213 63.0057 45.1792C62.0041 44.443 61.636 43.3387 62.0126 42.123C62.415 40.8389 62.8259 39.5548 63.2625 38.2878C63.3909 37.9197 63.2968 37.7399 63.0143 37.5345C61.9356 36.764 60.8741 35.985 59.8125 35.1888C58.7253 34.3755 58.3572 33.2798 58.7424 32.1069C59.1277 30.9341 60.0694 30.2921 61.4476 30.2835C62.0555 30.2835 62.6633 30.2835 63.2711 30.2835L63.2796 30.2921ZM65.0004 42.1658C65.0432 42.2086 65.0945 42.26 65.1373 42.3028C66.0619 41.6351 67.0036 40.9845 67.9196 40.3082C69.3064 39.2894 70.3166 39.2894 71.712 40.3082C72.628 40.9845 73.5611 41.6436 74.4857 42.3114C74.5285 42.2771 74.5798 42.2429 74.6226 42.2172C74.2888 41.2156 73.9977 40.2054 73.621 39.2209C72.9619 37.5088 73.2872 36.3702 74.7767 35.3258C75.6927 34.6837 76.5745 33.9989 77.6103 33.237C77.2422 33.2113 77.0282 33.1942 76.8228 33.1942C75.7783 33.1942 74.7425 33.2027 73.6981 33.1942C72.6109 33.177 71.7634 32.7233 71.2668 31.7303C71.0271 31.2509 70.8388 30.7372 70.6933 30.2065C70.445 29.3418 70.1539 28.4858 69.8629 27.5954C69.6146 27.7838 69.6232 28.0149 69.5547 28.2032C69.2122 29.2134 68.9126 30.2321 68.5445 31.2252C68.0137 32.6634 67.2262 33.177 65.6767 33.1856C64.6322 33.1856 63.5964 33.1856 62.552 33.1856C62.4064 33.1856 62.2181 33.1171 62.0897 33.314C63.0228 33.9903 63.9217 34.6666 64.8463 35.3172C66.3016 36.3445 66.6355 37.4317 66.0276 39.0925C65.6595 40.1113 65.3428 41.1471 65.0089 42.1658H65.0004Z" fill="#BF8CCF"/>
<path d="M17.9761 30.2912C18.6695 30.2912 19.363 30.2827 20.0564 30.2912C20.4502 30.2998 20.6299 30.12 20.7498 29.7519C21.135 28.5277 21.5288 27.3206 21.9397 26.105C22.2222 25.2746 22.6845 24.5812 23.5748 24.2901C25.2442 23.7508 26.631 24.4956 27.1789 26.2077C27.5385 27.3463 27.9237 28.4763 28.2661 29.6149C28.4117 30.1114 28.6771 30.3083 29.1993 30.2912C30.4149 30.257 31.6305 30.2741 32.8461 30.2827C34.1731 30.2827 35.226 30.9761 35.6027 32.0633C36.0051 33.2361 35.6541 34.3233 34.5669 35.1623C33.531 35.9499 32.4866 36.7203 31.4251 37.4737C31.0826 37.7134 30.997 37.9702 31.134 38.3555C31.5107 39.4855 31.8702 40.624 32.2383 41.7541C32.538 42.6701 32.6492 43.5775 32.0671 44.4336C31.1682 45.7519 29.4818 46.0516 28.1891 45.1184C27.119 44.348 26.0403 43.5775 24.9874 42.7728C24.6364 42.5074 24.3967 42.5502 24.0799 42.7899C23.0783 43.5518 22.0596 44.2795 21.0409 45.0243C20.0221 45.7691 18.7551 45.8461 17.8049 45.2383C16.8461 44.6219 16.3924 43.4405 16.7348 42.1992C17.0858 40.9494 17.5224 39.7252 17.9419 38.4924C18.1045 38.013 18.036 37.6963 17.5909 37.3966C16.555 36.6861 15.5449 35.9328 14.5433 35.1794C13.4732 34.3833 13.0965 33.2704 13.4903 32.0804C13.8413 31.0103 14.9028 30.2912 16.1698 30.2827C16.7776 30.2827 17.3854 30.2827 17.9932 30.2827L17.9761 30.2912ZM24.6021 27.6716C24.5508 27.6716 24.4994 27.6716 24.448 27.6802C24.1056 28.7246 23.7461 29.769 23.4208 30.8305C22.9157 32.4999 22.0253 33.1848 20.2961 33.1933C19.2945 33.1933 18.3014 33.1933 17.2998 33.1933C17.1543 33.1933 16.9488 33.0991 16.8461 33.3474C17.8135 34.0494 18.7808 34.7428 19.7396 35.4534C20.9039 36.318 21.2292 37.234 20.8611 38.638C20.7327 39.143 20.5615 39.631 20.4074 40.1275C20.1848 40.8381 19.9536 41.5486 19.6711 42.4304C20.0906 42.1393 20.356 41.9595 20.6214 41.7712C21.3747 41.2233 22.1195 40.6583 22.89 40.1275C24.0714 39.3143 25.0045 39.3228 26.203 40.1275C26.631 40.4186 27.0334 40.761 27.47 41.035C28.0864 41.4288 28.6086 41.9766 29.3962 42.3619C29.0965 41.4544 28.814 40.7097 28.5914 39.9392C28.3089 38.9376 27.7696 37.9788 28.1805 36.8488C28.523 35.9156 29.302 35.4448 30.0297 34.9055C30.7659 34.3661 31.5021 33.8268 32.2383 33.296C30.9713 33.1676 29.7557 33.1762 28.5486 33.1676C27.0933 33.1505 26.1345 32.4143 25.7065 31.0446C25.3555 29.906 24.9617 28.7845 24.5936 27.6545L24.6021 27.6716Z" fill="#BF8CCF"/>
<path d="M45.8072 4.42966C45.8072 3.65063 45.79 2.8716 45.8072 2.09257C45.8243 1.24506 46.2951 0.722852 47.0827 0.637244C47.7933 0.560198 48.5209 1.05672 48.6065 1.84431C48.7863 3.56502 48.8034 5.30286 48.5894 7.02357C48.4952 7.83684 47.8104 8.31624 47.0827 8.23919C46.3379 8.16215 45.8243 7.59714 45.8072 6.77531C45.79 5.99628 45.8072 5.21725 45.8072 4.43822V4.42966Z" fill="#BF8CCF"/>
<path d="M62.5093 6.97201C63.1342 6.93777 63.5451 7.25452 63.7763 7.7596C64.0502 8.36741 63.9389 8.96667 63.4681 9.44607C62.5778 10.3621 61.6618 11.2609 60.7629 12.1598C60.566 12.3567 60.3776 12.5793 60.1636 12.7505C59.5044 13.2898 58.6569 13.2556 58.109 12.682C57.544 12.0828 57.544 11.3894 58.1861 10.7216C59.2391 9.62584 60.3263 8.56431 61.3964 7.49422C61.7131 7.17747 62.0641 6.93777 62.5178 6.97201H62.5093Z" fill="#BF8CCF"/>
<path d="M31.9986 6.97206C32.3496 6.92926 32.6492 7.13472 32.9232 7.4001C34.0275 8.50444 35.1404 9.59166 36.2276 10.7046C36.8611 11.3637 36.844 12.2284 36.2362 12.7934C35.6883 13.2985 34.7637 13.2471 34.173 12.665C33.1286 11.6377 32.0756 10.6018 31.0484 9.55741C30.5946 9.09513 30.2608 8.53868 30.569 7.86238C30.8258 7.28881 31.2795 6.94638 31.9986 6.9635V6.97206Z" fill="#BF8CCF"/>
<path d="M7.60047 61.0332C7.61759 61.7865 6.97553 62.4628 6.22219 62.4628C5.4346 62.4628 4.82678 61.855 4.82678 61.0674C4.82678 60.3226 5.4346 59.7405 6.1965 59.7319C6.96697 59.7319 7.57478 60.2969 7.59191 61.0417L7.60047 61.0332Z" fill="#BF8CCF"/>
</svg>
