<svg width="46" height="60" viewBox="0 0 46 60" fill="none" xmlns="http://www.w3.org/2000/svg">
<path d="M0.129762 34.7982L2.61992 45.6516C3.73001 50.4969 6.2427 54.8998 10.3005 59.1226C10.6305 59.4677 11.0506 59.6252 11.6507 59.6252C14.8759 59.6252 18.1087 59.6252 21.334 59.6252C24.5592 59.6252 27.7919 59.6252 31.0247 59.6327C31.7522 59.6327 32.2323 59.3701 32.6223 58.7626C36.0501 53.3847 37.7977 47.4067 37.8052 40.9937C37.8052 37.1684 37.8052 33.3431 37.8052 29.5178C37.8052 29.2177 37.7828 28.8952 37.7453 28.5727C37.5728 27.1401 36.7401 25.8875 35.45 25.1524C34.1599 24.4099 32.6598 24.3199 31.3322 24.9049C30.7472 25.1599 30.4321 24.9049 30.1921 24.6049C28.842 22.9247 26.6069 22.3922 24.6267 23.2848C24.1617 23.4948 23.8317 23.4198 23.4866 23.0448C22.234 21.6797 20.7413 21.2071 18.9187 21.5821C18.8362 21.5971 18.7612 21.6046 18.6712 21.6121L18.1537 21.6721V19.3545H18.7163C18.8213 19.3545 18.9187 19.3545 19.0162 19.3545C21.3864 19.257 23.1266 17.4868 23.1566 15.1616C23.2016 11.5238 23.1791 7.81855 23.1566 4.23327V4.11326C23.1566 2.84566 22.654 1.78057 21.6865 0.948005C20.9364 0.302954 20.1639 0.00292969 19.2638 0.00292969H19.2338C16.436 0.0254315 13.6384 0.0254315 10.8406 0.0179309H7.32281C7.10529 0.0179309 6.94025 0.0179308 6.82774 0.0479332C5.17011 0.580475 4.17257 1.62306 3.86504 3.14568C3.70753 3.91824 3.71507 4.75831 3.71507 5.57587V6.07841V7.69104C3.70007 10.1812 3.685 12.7539 3.74501 15.2816C3.79751 17.5168 5.56022 19.2645 7.8479 19.3395C8.66547 19.362 8.77046 19.8495 8.77046 20.322C8.75546 22.7372 8.76295 25.1524 8.76295 27.5601V30.0503C8.76295 30.1703 8.76294 30.2828 8.74794 30.4103L8.71791 31.1229L8.15536 30.8979C8.09536 30.8754 8.01291 30.8529 7.93791 30.7779C6.6328 29.6153 5.05016 29.3153 2.94999 29.8178C0.77482 30.3428 -0.410281 32.4355 0.129762 34.8057V34.7982ZM8.77797 14.8766C8.77797 15.1091 8.77797 15.3341 8.77797 15.5667C8.77797 15.6867 8.77797 15.8142 8.77797 15.9417V16.4742L8.43288 16.5042C8.32787 16.5117 8.23035 16.5192 8.13284 16.5192C7.6378 16.5192 7.26285 16.3992 6.99283 16.1517C6.6853 15.8742 6.5353 15.4617 6.5353 14.8916C6.5353 11.3813 6.5353 7.87105 6.5353 4.36078C6.5353 3.25069 7.09783 2.68814 8.20792 2.68814C11.7032 2.68814 15.1985 2.68814 18.6937 2.68814C19.8113 2.68814 20.3964 3.28069 20.3964 4.39078C20.3964 7.88606 20.3964 11.3813 20.3964 14.8766C20.3964 15.4467 20.2314 15.8817 19.9163 16.1667C19.5863 16.4592 19.0987 16.5792 18.4687 16.5042L18.1312 16.4667V16.1292C18.1312 15.9042 18.1312 15.6717 18.1312 15.4392C18.1312 14.9441 18.1462 14.4491 18.1237 13.954C18.0187 11.9439 17.0661 10.5188 15.2809 9.7237C13.9533 9.13115 12.4457 9.21366 11.1481 9.94122C9.85049 10.6763 9.00294 11.9289 8.82293 13.384C8.76292 13.8715 8.76295 14.3591 8.76295 14.8766H8.77797ZM2.97993 32.9455C3.24995 32.5705 3.73001 32.473 4.12004 32.428L4.21755 32.413C4.30006 32.4055 4.37511 32.3905 4.45762 32.3905C5.63521 32.293 6.43026 32.8855 6.69278 34.0406C7.33033 36.8008 7.97534 39.5536 8.6204 42.3138C8.80041 43.0863 9.28043 43.5214 10.008 43.5589C10.713 43.5964 11.2456 43.2739 11.4556 42.6813C11.5456 42.4188 11.5607 42.1038 11.5607 41.8338C11.5607 38.226 11.5607 34.6257 11.5607 31.0179V25.5275C11.5607 21.8297 11.5607 18.1319 11.5607 14.4341C11.5607 13.969 11.6131 13.6015 11.7257 13.294C12.0032 12.5289 12.8732 12.0339 13.6983 12.1614C14.5534 12.2964 15.1909 12.9565 15.2959 13.8115C15.3184 13.9915 15.3185 14.1716 15.3185 14.3591V19.542C15.3185 23.2023 15.3185 26.8701 15.3185 30.5304C15.3185 31.0854 15.5735 31.5729 16.001 31.843C16.3986 32.0905 16.8786 32.1055 17.3137 31.888C17.8462 31.6254 18.1087 31.1829 18.1162 30.5379V28.9402C18.1162 27.9876 18.1162 27.0426 18.1237 26.09C18.1312 25.1899 18.7537 24.4474 19.6313 24.2899C20.5389 24.1248 21.394 24.5749 21.7015 25.3924C21.844 25.76 21.859 26.1725 21.8665 26.4425C21.8665 27.1551 21.8665 27.8601 21.8665 28.5727C21.8665 29.2928 21.8665 30.0203 21.8665 30.7404C21.874 31.5879 22.4215 32.203 23.1941 32.2255C23.5841 32.233 23.9441 32.113 24.2067 31.858C24.4917 31.5879 24.6492 31.1979 24.6567 30.7554C24.6642 30.2603 24.6567 29.7728 24.6567 29.2778C24.6567 28.7152 24.6567 28.1527 24.6642 27.5826C24.6792 26.9301 24.9567 26.36 25.4142 26.0075C25.8643 25.67 26.4343 25.5575 27.0269 25.715C27.867 25.9325 28.407 26.6675 28.4145 27.5976C28.4145 28.2802 28.4145 28.9627 28.4145 29.6453C28.4145 30.4553 28.4145 31.2729 28.4145 32.083C28.4145 32.6755 28.797 33.1931 29.3521 33.3806C29.9371 33.5831 30.5597 33.4031 30.8597 32.9455C31.0472 32.668 31.1673 32.3005 31.1898 31.9555C31.2273 31.3929 31.2197 30.8154 31.2122 30.2528C31.2122 29.9453 31.2122 29.6378 31.2122 29.3303C31.2272 28.1602 32.0148 27.3126 33.0873 27.3126C33.6124 27.3126 34.0924 27.5076 34.43 27.8676C34.775 28.2277 34.9625 28.7302 34.955 29.2853C34.955 30.5454 34.955 31.8055 34.9625 33.0656C34.9775 36.3808 34.9925 39.8086 34.8575 43.1839C34.6775 47.6692 33.2974 52.0796 30.7697 56.3024C30.6122 56.5724 30.2221 56.7899 29.8996 56.7899C26.9068 56.7974 23.9216 56.8049 20.9289 56.8049C18.0937 56.8049 15.2585 56.8049 12.4232 56.7974C12.1232 56.7974 11.7782 56.6474 11.5832 56.4299C8.62795 53.1672 6.70022 49.8969 5.69515 46.4541C5.33512 45.2315 5.06513 43.9714 4.79511 42.7488C4.6751 42.1863 4.54759 41.6237 4.42008 41.0612L2.81494 34.1681C2.72494 33.7931 2.66495 33.3131 2.92747 32.938L2.97993 32.9455Z" fill="#BF8CCF"/>
<path d="M37.8577 0.0104144H34.715C34.2274 0.0104144 33.7473 0.0104144 33.2598 0.0104144C32.1722 0.0104144 31.0771 0.0104142 29.9895 0.0179148C29.742 0.0179148 29.472 0.0629186 29.247 0.152926C27.5369 0.775475 26.4643 2.25309 26.4493 4.00823C26.4043 8.37358 26.4043 11.9439 26.4493 15.2441C26.4793 17.5168 28.2794 19.3094 30.5521 19.3394C34.3324 19.3845 38.0977 19.3845 41.743 19.3394C44.0157 19.3094 45.8233 17.5168 45.8608 15.2516C45.9283 11.1488 45.8983 7.09098 45.8608 4.01573C45.8458 2.57562 45.1933 1.42053 43.9107 0.572959C43.3106 0.175427 42.7256 -0.0270888 42.043 0.0029136C40.6479 0.0254154 39.2603 0.0254154 37.8652 0.0179148L37.8577 0.0104144ZM43.0781 4.38326C43.0781 7.86354 43.0781 11.3438 43.0781 14.8241C43.0781 15.9792 42.508 16.5417 41.3455 16.5417C39.6053 16.5417 37.8652 16.5417 36.1251 16.5417C34.3849 16.5417 32.6448 16.5417 30.9047 16.5417C29.7721 16.5417 29.217 15.9867 29.217 14.8466C29.217 13.624 29.217 12.4014 29.217 11.1713V9.59618V8.09606C29.217 6.84346 29.217 5.59836 29.217 4.35326C29.217 3.24317 29.7796 2.68063 30.8897 2.68063C34.3849 2.68063 37.8802 2.68063 41.3755 2.68063C42.4856 2.68063 43.0781 3.27317 43.0781 4.38326Z" fill="#BF8CCF"/>
</svg>
