<svg width="81" height="80" viewBox="0 0 81 80" fill="none" xmlns="http://www.w3.org/2000/svg">
<path d="M10.6358 26.147C10.6358 25.3759 10.6273 24.8105 10.6358 24.2365C10.6615 23.157 11.2096 22.5916 12.28 22.583C14.4466 22.5659 16.6217 22.5488 18.7883 22.583C21.7769 22.6344 24.1404 24.9818 24.1576 27.9718C24.1918 34.1058 24.1747 40.2399 24.1576 46.374C24.1576 47.4277 23.5667 48.0703 22.6847 48.0617C21.8026 48.0531 21.246 47.4106 21.246 46.3397C21.246 40.5398 21.246 34.7312 21.246 28.9313C21.246 28.6657 21.246 28.4001 21.246 28.1345C21.1689 26.5153 20.2184 25.5387 18.5999 25.4958C17.1355 25.453 15.6797 25.4958 14.2154 25.4787C13.7358 25.4787 13.5389 25.6672 13.5474 26.147C13.5645 27.0979 13.5474 28.0489 13.5474 28.9998C13.5474 29.7109 13.3847 30.3277 12.6739 30.6447C11.9632 30.9617 11.4066 30.6704 10.8671 30.1992C7.63862 27.3721 4.40163 24.562 1.16463 21.7349C0.984799 21.5721 0.81353 21.3922 0.633697 21.2294C-0.19696 20.4669 -0.214087 19.576 0.625133 18.8306C2.34639 17.3057 4.07621 15.7893 5.8146 14.2815C7.51017 12.7993 9.2143 11.3172 10.9099 9.82654C11.4237 9.37248 11.9717 9.1069 12.6654 9.40675C13.3505 9.7066 13.556 10.2806 13.556 10.9745C13.556 11.797 13.556 12.6109 13.556 13.4333C13.556 14.1986 13.9271 14.5813 14.6692 14.5813C16.9471 14.5813 19.2336 14.5813 21.5115 14.5813C25.7076 14.5813 29.681 17.28 31.2909 21.1523C31.8818 22.5659 32.1387 24.0309 32.1473 25.5473C32.1473 26.7467 32.1473 27.9375 32.1473 29.1369C32.1473 29.3082 32.0788 29.5481 32.2329 29.6338C32.447 29.7537 32.5926 29.5138 32.721 29.3853C34.4509 27.7747 36.489 26.8495 38.8354 26.6096C42.021 26.284 44.8212 27.2093 47.219 29.3425C47.3646 29.471 47.5102 29.7195 47.6986 29.6509C47.9469 29.5567 47.827 29.2654 47.8356 29.0598C47.9041 26.918 47.6215 24.7591 48.1867 22.643C48.9231 19.8929 50.4988 17.7512 52.888 16.2176C54.772 15.0097 56.8529 14.5385 59.0794 14.5642C61.246 14.5899 63.4211 14.5556 65.5877 14.5813C66.2128 14.5813 66.4611 14.3843 66.4355 13.7417C66.3926 12.7908 66.4269 11.8398 66.4355 10.8889C66.4355 10.2206 66.6752 9.67233 67.3346 9.38962C67.994 9.1069 68.5335 9.33821 69.0387 9.77514C72.3014 12.628 75.5727 15.4723 78.8439 18.3251C79.0066 18.4708 79.1608 18.6336 79.3235 18.7878C80.1884 19.5845 80.2055 20.4584 79.3406 21.2294C77.6194 22.7544 75.8895 24.2707 74.1597 25.7786C72.4813 27.2521 70.7943 28.7171 69.1158 30.1906C68.602 30.6447 68.0625 30.9274 67.3689 30.6447C66.6495 30.3449 66.444 29.7537 66.444 29.0341C66.444 28.0831 66.4269 27.1322 66.444 26.1812C66.4526 25.6843 66.2899 25.453 65.7589 25.453C64.3203 25.4701 62.8816 25.4359 61.4429 25.4701C59.7217 25.5044 58.7369 26.5325 58.7369 28.2459C58.7283 33.6689 58.7369 39.1005 58.7369 44.5235C58.7369 44.7891 58.7454 45.0546 58.7198 45.3202C58.6427 46.1341 58.0518 46.6995 57.2897 46.7081C56.5361 46.7081 55.9281 46.1512 55.8424 45.3459C55.8167 45.1489 55.8253 44.9518 55.8253 44.7462C55.8253 39.2547 55.8253 33.7631 55.8253 28.2716C55.8253 24.8961 58.1717 22.5488 61.5457 22.5488C63.541 22.5488 65.5277 22.5488 67.523 22.5488C68.8418 22.5488 69.3556 23.0799 69.3642 24.4078C69.3642 24.9133 69.3642 25.4102 69.3642 26.0784C70.289 25.2817 71.094 24.6049 71.8818 23.9195C73.2092 22.7544 74.5194 21.5635 75.8553 20.407C76.1807 20.1242 76.2492 19.97 75.881 19.6531C73.9028 17.9482 71.9589 16.2091 69.9893 14.4956C69.8437 14.3671 69.6896 14.1529 69.484 14.2386C69.2614 14.3329 69.3727 14.5899 69.3642 14.7784C69.347 15.1125 69.3642 15.4466 69.3642 15.7721C69.3385 16.9287 68.799 17.477 67.6429 17.4856C64.6971 17.4941 61.7512 17.4684 58.8054 17.4941C56.5703 17.5113 54.6007 18.2052 52.9994 19.8415C51.4322 21.4436 50.79 23.3883 50.7729 25.5644C50.7472 29.531 50.79 33.4976 50.7557 37.4556C50.7386 39.6316 50.0878 41.6364 48.8289 43.4269C48.2809 44.2065 48.2723 44.2493 49.1372 44.6777C51.2267 45.7057 53.0336 47.1108 54.6264 48.7985C55.8596 50.1093 56.9214 51.54 57.735 53.1592C57.8977 53.4847 58.0176 53.6561 58.3258 53.2705C59.2678 52.114 60.3297 51.0773 61.6228 50.3149C62.0081 50.0921 62.0081 49.8951 61.8197 49.5267C59.9186 45.8086 62.1537 41.0195 66.2128 40.06C70.7429 38.9891 74.8191 42.2875 74.6735 46.9223C74.6478 47.8304 74.4423 48.7299 73.997 49.5353C73.7829 49.9208 73.8514 50.1007 74.2111 50.3234C76.0951 51.5228 77.5851 53.0821 78.6384 55.0782C79.4776 56.6803 79.9058 58.3937 79.9829 60.1671C80.0343 61.4436 80.1028 62.7201 79.8116 64.0052C79.1351 67.0122 76.489 69.274 73.4061 69.3082C69.7067 69.3511 66.0073 69.3082 62.3164 69.3168C61.7769 69.3168 61.2631 69.1797 60.7493 69.0341C60.2184 68.8799 60.0728 69.0855 60.0728 69.5824C60.0814 71.2872 60.0985 72.9921 60.0728 74.697C60.0471 76.0334 59.7217 77.2928 58.7968 78.3123C57.4267 79.8201 55.6455 80.1799 53.7529 79.8458C51.1839 79.3918 48.6919 78.5693 46.1743 77.8839C44.2304 77.3528 42.2864 76.8473 40.3425 76.3247C40.0685 76.2562 39.8202 76.2905 39.5633 76.359C37.705 76.8645 35.8553 77.3699 33.9884 77.8668C31.4879 78.535 29.0216 79.3232 26.4783 79.8116C24.5429 80.1885 22.7189 79.8887 21.2888 78.3637C20.3297 77.3356 20.0043 76.0506 19.97 74.697C19.9272 73.0349 19.97 71.3729 19.9529 69.7109C19.9529 68.9313 19.9015 68.8884 19.1565 69.0684C18.42 69.2483 17.675 69.3168 16.9214 69.3168C13.5988 69.3082 10.2762 69.3168 6.96211 69.3168C3.00578 69.3168 0.0513804 66.3354 0.02569 62.3688C0.0171265 60.8182 0.02569 59.2675 0.402483 57.7512C1.13038 54.7869 2.79169 52.4652 5.25797 50.6918C5.38643 50.5976 5.51488 50.5119 5.65189 50.4434C6.15714 50.1949 6.24277 49.9293 5.95162 49.3639C4.4787 46.4597 5.8146 42.4331 8.63198 40.7882C11.5864 39.0576 15.3458 39.6659 17.4952 42.5016C19.1137 44.6349 19.3278 47.008 18.2402 49.4582C18.0432 49.8951 18.0347 50.1007 18.4629 50.3491C19.7388 51.0945 20.775 52.1225 21.6999 53.262C22.0081 53.6389 22.1195 53.4762 22.2907 53.1506C24.0034 49.9036 26.4183 47.3249 29.5611 45.4145C30.1092 45.0803 30.6658 44.7719 31.2396 44.4721C31.642 44.2665 31.6592 44.0266 31.4023 43.6839C30.3404 42.2532 29.6553 40.6683 29.3984 38.8949C29.3299 38.4151 29.27 37.9353 29.27 37.4385C29.27 33.4719 29.27 29.5138 29.27 25.5473C29.27 23.3541 28.5934 21.4093 27.0349 19.8244C25.4421 18.1966 23.4725 17.477 21.2289 17.4684C18.3515 17.4513 15.4742 17.4684 12.5969 17.4684C11.1925 17.4684 10.6872 16.9544 10.6787 15.5494C10.6787 15.2581 10.6872 14.9754 10.6787 14.6841C10.6787 14.5213 10.7557 14.29 10.5502 14.2129C10.3618 14.1358 10.2248 14.3243 10.0963 14.4357C8.65767 15.6865 7.22757 16.9373 5.79747 18.1881C5.23228 18.685 4.67566 19.1904 4.11047 19.6873C3.90494 19.8672 3.7508 20.0129 4.04196 20.2613C6.19996 22.1547 8.35795 24.048 10.6787 26.0955L10.6358 26.147ZM46.0201 74.6627C47.0734 75.2624 48.2124 75.4509 49.3085 75.7507C50.9698 76.1962 52.6054 76.7702 54.3267 77.0101C55.654 77.19 56.9386 76.7959 57.067 75.0996C57.1869 73.5318 57.1441 71.9555 57.127 70.3877C57.0927 67.2864 57.2468 64.1936 57.0242 61.0923C56.7758 57.6398 55.5341 54.607 53.419 51.9084C51.5179 49.4839 49.0944 47.7533 46.2513 46.5796C45.9174 46.4425 45.6262 46.4682 45.3094 46.6481C41.7641 48.5843 38.2188 48.5843 34.6821 46.6396C34.3567 46.4597 34.0655 46.4511 33.7401 46.5882C32.4128 47.1536 31.1197 47.7961 29.9722 48.6614C25.2451 52.2253 22.9073 56.9887 22.873 62.8914C22.8559 66.6096 22.873 70.3363 22.873 74.0544C22.873 74.5942 22.933 75.1168 23.0614 75.6308C23.2241 76.3162 23.6438 76.7274 24.3374 76.933C25.1509 77.1729 25.9302 77.0187 26.6924 76.8131C29.9037 75.9649 33.0978 75.0911 36.3006 74.2343C40.805 73.0264 45.3179 71.8355 49.8309 70.6276C51.0383 70.302 51.9032 69.1369 51.8347 67.9718C51.7405 66.5239 50.9184 65.6329 49.4883 65.453C49.043 65.393 48.6063 65.4959 48.1781 65.5987C46.3113 66.0613 44.4444 66.5325 42.5776 67.0122C40.3254 67.5948 38.0818 68.1945 35.8381 68.7685C33.3719 69.4025 30.9056 70.0193 28.4393 70.6276C27.66 70.8161 27.0006 70.4477 26.718 69.7366C26.4611 69.0769 26.7009 68.3316 27.3774 67.9889C27.8313 67.7576 27.9426 67.4406 27.9341 66.978C27.9169 65.6072 27.9169 64.2279 27.9341 62.8572C27.9341 61.7948 28.4993 61.1437 29.3813 61.1437C30.2633 61.1437 30.8371 61.7863 30.8456 62.84C30.8628 63.988 30.8628 65.1446 30.8456 66.2926C30.8456 66.7981 30.9912 66.9694 31.5136 66.8323C34.5108 66.0527 37.508 65.2731 40.5138 64.5278C43.1942 63.8595 45.8403 63.0542 48.5635 62.5316C48.9403 62.4545 49.1886 62.3003 49.377 61.9491C49.7024 61.3322 50.319 61.0409 50.9099 61.1694C51.5693 61.3065 52.0659 61.8034 52.0659 62.5231C52.0659 63.1399 52.3571 63.4911 52.7938 63.8424C55.1231 65.7186 55.3971 69.4624 53.4018 71.6985C52.4256 72.7865 51.1925 73.3434 49.8052 73.6775C48.5463 73.9773 47.2961 74.3457 46.0458 74.6798L46.0201 74.6627ZM12.0831 66.4382C13.7444 66.4382 15.3971 66.4382 17.0584 66.4382C17.7093 66.4382 18.3344 66.3183 18.9424 66.1041C19.6189 65.8642 19.9786 65.4616 19.9443 64.6734C19.8416 62.326 19.9872 59.9872 20.5181 57.6826C20.5866 57.3999 20.5181 57.16 20.4153 56.9116C19.5675 54.9668 18.1374 53.5704 16.322 52.5338C15.9195 52.3024 15.577 52.431 15.2002 52.6194C13.0936 53.6732 10.9955 53.6732 8.90602 52.5766C8.57204 52.3967 8.26375 52.3196 7.90409 52.5081C6.12289 53.4762 4.76129 54.8383 3.85356 56.6631C2.98009 58.428 2.88589 60.3213 2.92015 62.2318C2.96296 64.8962 4.49582 66.4125 7.16763 66.4297C8.80325 66.4297 10.4389 66.4297 12.0745 66.4297L12.0831 66.4382ZM67.8484 66.4382C69.5697 66.4382 71.2995 66.4554 73.0208 66.4382C75.4442 66.404 76.9857 64.8619 77.0542 62.4374C77.0713 61.8377 77.0713 61.238 77.0542 60.6469C76.9172 57.1515 75.35 54.4956 72.3528 52.6794C71.8904 52.3967 71.4879 52.3796 70.9912 52.6366C68.8932 53.6989 66.7866 53.6989 64.7056 52.5937C64.3374 52.3967 64.012 52.3539 63.6438 52.5595C61.9225 53.5275 60.5609 54.8469 59.696 56.6374C59.5247 56.9887 59.3877 57.3485 59.4819 57.7854C59.9272 59.7987 60.0985 61.8462 60.0557 63.9109C60.0214 65.8128 60.3126 66.1213 62.2137 66.404C62.4706 66.4468 62.7446 66.4468 63.0101 66.4468C64.6286 66.4468 66.2385 66.4468 67.857 66.4468L67.8484 66.4382ZM39.9914 45.1746C44.2989 45.1746 47.8013 41.6792 47.827 37.3613C47.8527 33.0435 44.3074 29.4881 39.9829 29.4881C35.684 29.4881 32.173 33.0007 32.1473 37.3014C32.1216 41.6278 35.6583 45.1746 39.9914 45.166V45.1746ZM71.7362 46.6396C71.7448 44.5149 70.0321 42.8015 67.8998 42.7929C65.7761 42.7929 64.0462 44.5063 64.0462 46.631C64.0462 48.7471 65.7675 50.4776 67.8912 50.4862C70.0064 50.4862 71.7277 48.7728 71.7448 46.6481L71.7362 46.6396ZM12.1002 50.4862C14.2154 50.4776 15.9366 48.7385 15.9366 46.631C15.9366 44.5063 14.2154 42.7929 12.0831 42.8015C9.9422 42.8015 8.24663 44.5149 8.25519 46.6481C8.26375 48.7728 9.99358 50.5033 12.1002 50.4862Z" fill="#BF8CCF"/>
<path d="M45.4463 17.0829C45.4463 18.0596 45.4806 19.0362 45.4378 20.0043C45.3778 21.2551 44.1704 21.8977 43.177 21.2466C42.7232 20.9467 42.5519 20.4927 42.5519 19.9872C42.5348 17.3571 42.5262 14.7184 42.5519 12.0883C42.5519 11.2316 43.1342 10.7004 43.982 10.6404C44.4444 10.6062 44.9069 10.6404 45.3778 10.6233C45.5234 10.6233 45.7204 10.6833 45.7889 10.5034C45.8574 10.3406 45.7118 10.2121 45.6091 10.1007C44.8897 9.26113 44.1704 8.42155 43.4425 7.59054C42.4234 6.42541 41.3787 5.28598 40.3768 4.11228C40.0685 3.74389 39.9058 3.7953 39.6232 4.12941C37.9276 6.08272 36.2149 8.0189 34.5108 9.97221C34.3738 10.1264 34.1169 10.2892 34.2368 10.5205C34.331 10.7175 34.5964 10.6147 34.7934 10.6233C35.1873 10.6319 35.5898 10.6147 35.9837 10.6404C36.8743 10.6918 37.4395 11.223 37.4652 12.114C37.5423 14.7013 37.6793 17.2885 37.6193 19.8758C37.5936 20.8525 36.9942 21.5122 36.1464 21.5036C35.2815 21.5036 34.7077 20.8782 34.6821 19.8758C34.6307 18.1281 34.605 16.3804 34.5793 14.6327C34.5622 13.5533 34.5793 13.5533 33.466 13.5533C32.6268 13.5533 31.7876 13.5533 30.9398 13.5533C30.2462 13.5533 29.6724 13.3305 29.3898 12.6366C29.1158 11.9769 29.3556 11.4372 29.7923 10.9403C32.644 7.67621 35.487 4.40356 38.3301 1.13948C38.4928 0.959571 38.6641 0.788228 38.8353 0.608318C39.5632 -0.17986 40.4795 -0.196994 41.1903 0.608318C42.7317 2.34745 44.256 4.09515 45.7803 5.84284C47.2532 7.522 48.709 9.20973 50.1905 10.8889C50.6444 11.4029 50.9355 11.9427 50.6444 12.6366C50.3532 13.3562 49.7538 13.5618 49.0344 13.5618C48.101 13.5618 47.1762 13.5875 46.2428 13.5618C45.6176 13.5361 45.4292 13.7846 45.4463 14.3843C45.4806 15.2924 45.4549 16.2005 45.4549 17.1086L45.4463 17.0829Z" fill="#BF8CCF"/>
</svg>
