<svg width="74" height="68" viewBox="0 0 74 68" fill="none" xmlns="http://www.w3.org/2000/svg">
<path d="M69.5756 44.6481C68.3755 44.4083 67.1079 44.5507 65.7128 45.0604C63.7777 45.7724 61.835 46.477 59.8924 47.174L53.2243 49.5801C52.4968 46.8967 50.9666 45.7499 48.1389 45.7499H45.3037C42.356 45.7499 39.4007 45.7499 36.453 45.7424C36.1605 45.7424 35.868 45.6825 35.6429 45.5775L34.4728 45.0454C32.8227 44.2958 31.1201 43.5163 29.4774 42.6843C26.2597 41.0578 23.2219 40.3458 20.1992 40.5256C19.2766 40.5781 18.3241 40.5481 17.4015 40.5256H17.1915C17.1315 40.5182 17.0115 40.4657 16.9965 40.4507C16.6364 39.5812 16.3589 39.3114 15.3238 39.3114C11.9336 39.3114 8.54328 39.3114 5.15301 39.3114C4.03542 39.3114 3.53288 39.7461 3.36787 40.8704C2.34779 47.7212 1.32771 54.572 0.315129 61.4228L0.240123 61.895C0.150116 62.4871 0.0526085 63.0942 0.00760496 63.7014C-0.0448992 64.3534 0.150116 65.148 1.36521 65.2754C1.54523 65.2979 1.72524 65.2979 1.90526 65.2904H2.04777H13.9137H14.3262C14.6638 65.2904 14.9938 65.2904 15.3313 65.2904C16.3439 65.2604 16.8839 64.7282 16.9289 63.7238C16.9515 63.2516 16.9515 62.8394 16.9289 62.4571C16.9289 62.3972 16.9289 62.3597 16.9289 62.3447C16.9515 62.3447 16.9965 62.3372 17.079 62.3372C17.964 62.3447 18.8491 62.3447 19.7342 62.3447C20.3717 62.3447 21.0093 62.3447 21.6393 62.3447C21.8268 62.3447 22.0069 62.3747 22.1569 62.4271L22.9069 62.682C24.5121 63.2291 26.1247 63.7763 27.7223 64.346C28.6299 64.6683 29.5374 65.0056 30.445 65.3503C32.0501 65.95 33.7078 66.5646 35.3654 67.0968C36.813 67.5615 38.2381 67.7938 39.6483 67.7938C41.9059 67.7938 44.1186 67.2017 46.2488 66.0099C47.5764 65.2754 48.9565 64.5783 50.2991 63.9037C50.9516 63.5739 51.6117 63.2441 52.2568 62.9143L70.1157 53.7325C71.0457 53.2528 71.8033 52.5782 72.3583 51.7237C73.3034 50.2771 73.5059 48.6356 72.9134 47.2265C72.3508 45.8923 71.1357 44.9479 69.5831 44.6481H69.5756ZM17.664 59.4665C17.469 59.4665 17.2665 59.4665 17.0715 59.459V43.5613C17.514 43.5613 17.949 43.5538 18.3841 43.5388C21.5643 43.4788 24.5646 43.4264 27.4073 44.9629C28.6224 45.6225 29.8975 46.2146 31.1276 46.7843C31.5401 46.9792 31.9526 47.1666 32.3652 47.3614C33.3553 47.8336 34.2403 48.2159 35.0504 48.5532C35.3429 48.6731 35.7029 48.7331 36.153 48.7331C40.1433 48.7406 44.1411 48.7331 48.1314 48.7481C48.5965 48.7481 49.0465 48.823 49.4365 48.9654C50.0141 49.1678 50.5241 50.0823 50.4116 50.6819C50.3966 50.7119 50.3366 50.7718 50.2766 50.8018C48.1539 51.8886 46.3988 52.3234 44.5986 52.2259C42.8885 52.1285 41.1484 52.1585 39.4682 52.181C38.8907 52.1885 38.3131 52.196 37.7431 52.2034C35.9655 52.2184 34.5328 53.2828 34.0003 54.9842C33.6853 55.9961 34.0153 56.7906 34.8704 57.0679C35.2679 57.1954 35.6579 57.1729 35.9955 57.0005C36.3855 56.7981 36.678 56.4158 36.843 55.8837C37.0005 55.374 37.1506 55.2166 37.7956 55.2166C40.4058 55.2166 43.016 55.2091 45.6262 55.2166C47.1488 55.2016 48.4915 54.9318 49.7365 54.3171C52.5043 52.953 55.4595 51.9036 58.3247 50.8843C59.6748 50.4046 61.07 49.9099 62.4351 49.3852C63.4776 48.9804 64.5352 48.6057 65.5928 48.2234L67.0329 47.6987C67.858 47.3989 68.6005 47.3689 69.3056 47.6163C70.0932 47.8861 70.4157 48.4558 70.2432 49.2578C70.0332 50.2247 69.4406 50.9517 68.443 51.4614C65.7128 52.863 62.9901 54.2647 60.2599 55.6663L55.092 58.3197C53.9894 58.8818 52.8868 59.444 51.7842 60.0061C49.474 61.1829 47.0888 62.3972 44.7562 63.6339C41.9884 65.0955 39.1007 65.3503 36.1605 64.3684C34.0453 63.6639 31.9226 62.8694 29.875 62.0973C28.9599 61.7526 28.0448 61.4078 27.1298 61.0705L26.6572 60.8981C26.2897 60.7632 25.9222 60.6357 25.5621 60.4858C23.867 59.7738 22.2169 59.4215 20.5367 59.4215C20.2442 59.4215 19.9517 59.429 19.6517 59.4515C19.0066 59.4964 18.3616 59.489 17.679 59.474L17.664 59.4665ZM13.9287 42.5269C13.9137 47.4364 13.9137 52.3384 13.9137 57.2478V62.0749C13.9137 62.1273 13.9137 62.1873 13.9137 62.2473H3.27036C3.28537 62.1123 3.30037 61.9774 3.32287 61.8425L6.02308 42.7668C6.05308 42.5569 6.08309 42.332 6.08309 42.3096C6.14309 42.2871 6.37561 42.2871 6.58563 42.2871H8.41577C10.1634 42.2871 11.9036 42.2871 13.6512 42.2796H13.6737C13.8537 42.2796 13.8987 42.3095 13.9062 42.2946C13.9062 42.2946 13.9362 42.347 13.9362 42.5269H13.9287Z" fill="#BF8CCF"/>
<path d="M71.5933 20.2506C70.9782 20.2057 70.3181 20.1907 69.6431 20.1907C69.4856 20.1907 69.4406 20.1907 69.3506 19.9583C68.983 19.0064 68.548 18.0095 68.0755 16.9976C67.993 16.8252 68.008 16.8103 68.1205 16.6978C68.638 16.1881 69.1256 15.656 69.5006 15.2437C70.2056 14.4717 70.2131 13.6097 69.5006 12.8902C68.308 11.6759 67.0704 10.4392 65.8103 9.20994C65.3303 8.74523 64.5577 8.36296 63.6201 9.20994C62.9901 9.77959 62.51 10.2293 62.075 10.664C61.9625 10.769 61.955 10.784 61.775 10.7015C60.7324 10.2143 59.7573 9.79458 58.8122 9.42731C58.6022 9.34486 58.5947 9.31488 58.5947 9.12749C58.5947 8.4604 58.5572 7.76333 58.5047 7.05877C58.4297 6.10686 57.8447 5.55969 56.8996 5.5522C55.1444 5.53721 53.3968 5.53721 51.6942 5.5522C50.7116 5.55969 50.1791 6.06938 50.0965 7.05127C50.044 7.71087 50.014 8.40794 49.999 9.17246C49.999 9.31488 49.999 9.34486 49.789 9.42731C48.7614 9.83206 47.7639 10.2593 46.8263 10.7015C46.6388 10.7915 46.6313 10.784 46.5263 10.679C46.1287 10.2743 45.7087 9.89202 45.2962 9.50226L45.0786 9.29989C44.2911 8.56534 43.436 8.57283 42.6785 9.31488C41.4559 10.5141 40.2408 11.7284 39.0407 12.9576C38.3806 13.6322 38.3656 14.4342 39.0182 15.1538L39.1682 15.3187C39.5507 15.7384 39.9407 16.1731 40.3608 16.5779C40.5708 16.7728 40.6008 16.8477 40.4433 17.155C40.0307 17.972 39.6482 18.8715 39.2432 19.9808C39.1682 20.1907 39.1307 20.1982 38.9507 20.1982H38.8231C38.1706 20.2132 37.488 20.2206 36.8205 20.2881C35.9279 20.3706 35.3729 20.9852 35.3654 21.8846C35.3504 23.6235 35.3504 25.355 35.3654 27.0864C35.3654 28.0458 35.9054 28.6155 36.8655 28.6829C37.1505 28.7054 37.4355 28.7129 37.7206 28.7279C38.1481 28.7504 38.5831 28.7654 39.0107 28.8104C39.0632 28.8178 39.1832 28.9078 39.2057 28.9603C39.4307 29.4475 39.6407 29.9422 39.8507 30.4368C40.0682 30.939 40.2783 31.4487 40.5108 31.9509C40.6008 32.1533 40.5933 32.1683 40.4958 32.2582C40.0532 32.693 39.6332 33.1577 39.1982 33.6374C38.5081 34.4019 38.5231 35.2564 39.2357 35.9834C40.4283 37.1977 41.6509 38.4194 42.8735 39.6187C43.5635 40.2933 44.3436 40.3083 45.0711 39.6562C45.6937 39.1015 46.1812 38.6368 46.6163 38.1946C46.7363 38.0746 46.7513 38.0596 46.9613 38.1646C47.9889 38.6518 48.949 39.064 49.879 39.4163C50.119 39.5063 50.119 39.5512 50.1265 39.7011C50.134 40.3382 50.149 41.0578 50.2016 41.7699C50.2766 42.7143 50.8766 43.2839 51.7992 43.2914C52.6767 43.2914 53.5543 43.2989 54.4319 43.2989C55.3095 43.2989 56.187 43.2989 57.0646 43.2839C58.0097 43.2764 58.5647 42.7293 58.6172 41.7399C58.6322 41.5225 58.6397 41.3051 58.6472 41.0803C58.6697 40.6081 58.6922 40.1284 58.7372 39.6562C58.7372 39.6037 58.8272 39.4763 58.8722 39.4538C59.3673 39.2289 59.8698 39.0116 60.3724 38.8017C60.8899 38.5843 61.4074 38.367 61.9175 38.1271C62.0675 38.0596 62.075 38.0596 62.1725 38.1646C62.585 38.5693 63.1401 39.1015 63.7251 39.6112C63.9051 39.7686 64.1077 39.8735 64.3252 39.986C64.4152 40.0309 64.5127 40.0834 64.6102 40.1359C64.7227 40.1958 64.8502 40.2033 64.9627 40.1359C65.0752 40.0684 65.1802 40.0234 65.2928 39.971C65.5478 39.851 65.8028 39.7311 66.0128 39.5212C67.3704 38.2096 68.6755 36.8904 69.6581 35.886C70.3482 35.1814 70.3632 34.4469 69.6956 33.6973C69.4931 33.4725 69.2831 33.2551 69.0806 33.0377C68.7955 32.7379 68.5105 32.4381 68.2405 32.1233C68.203 32.0708 68.188 31.9059 68.2105 31.846C68.398 31.3738 68.6005 30.9016 68.803 30.4368C69.0355 29.9047 69.2606 29.3725 69.4706 28.8403C69.5456 28.6529 69.5681 28.6529 69.7256 28.6529C70.4307 28.6455 71.0457 28.623 71.6158 28.5855C72.8083 28.503 73.3409 27.9409 73.3409 26.7491C73.3409 25.2126 73.3409 23.6685 73.3409 22.132C73.3409 20.9252 72.7783 20.3256 71.5783 20.2506H71.5933ZM65.1577 33.2326L65.5103 33.6374C65.8253 33.9972 66.1478 34.3494 66.4178 34.7017C66.4328 34.7317 66.4328 34.8141 66.4628 34.7842C65.9903 35.3013 65.4953 35.796 64.9852 36.3057L64.7227 36.5681L64.4302 36.3132C64.0252 35.9609 63.6426 35.6236 63.2451 35.2939C62.5625 34.7167 61.9625 34.6642 61.2274 35.129C59.9223 35.9534 58.5122 36.5456 57.0571 36.8979C56.202 37.1002 55.7895 37.5949 55.7295 38.5019C55.7145 38.7342 55.707 38.9666 55.6995 39.1989C55.692 39.5287 55.6845 39.851 55.647 40.1658C55.6395 40.1958 55.5945 40.2633 55.557 40.3008C54.9044 40.3233 54.2519 40.3232 53.5618 40.3232H53.1793L53.1568 39.941C53.1193 39.4238 53.0893 38.9216 53.0818 38.4194C53.0668 37.6174 52.6392 37.1002 51.8667 36.9278C50.3666 36.5906 48.949 35.9909 47.5313 35.1065C46.7513 34.6193 46.1962 34.6642 45.4687 35.2864C45.0711 35.6236 44.6811 35.9684 44.2911 36.3057L44.0736 36.4931L42.2884 34.6942L42.4534 34.4993C42.7685 34.1396 43.0985 33.7648 43.421 33.3825C44.0511 32.648 44.0961 32.0334 43.5785 31.2164C42.7985 29.9796 42.2359 28.6455 41.8984 27.2588C41.6509 26.2469 41.1933 25.8647 40.1508 25.8047C39.9707 25.7972 39.7982 25.7897 39.6182 25.7822C39.2957 25.7747 38.9732 25.7597 38.6806 25.7223C38.6581 25.7148 38.6131 25.6773 38.5831 25.6473C38.5606 24.9802 38.5606 24.3206 38.5681 23.6235V23.2488L38.9657 23.2263C39.4982 23.1888 40.0082 23.1588 40.5183 23.1438C41.2758 23.1214 41.7709 22.7241 41.9359 21.9971C42.3034 20.393 42.9335 18.9015 43.811 17.5673C44.2236 16.9377 44.1711 16.2931 43.646 15.7009C43.3085 15.3112 42.9635 14.9289 42.641 14.5541L42.4084 14.2918L44.2011 12.4929L44.4486 12.7103C44.7936 13.0176 45.1537 13.3324 45.5212 13.6472C46.2037 14.2318 46.8638 14.2918 47.5988 13.8271C48.8889 13.0176 50.2916 12.4255 51.7767 12.0582C52.6317 11.8483 53.0218 11.3611 53.0743 10.4392L53.1793 8.66278H53.4943C54.2069 8.66278 54.9044 8.66278 55.6095 8.67777C55.6245 8.70026 55.647 8.72274 55.647 8.73024C55.692 9.19495 55.707 9.65966 55.722 10.1244L55.7445 10.6416C55.7745 11.3911 56.187 11.8708 56.9221 12.0357C58.5047 12.3955 59.9748 13.0176 61.2949 13.8796C61.9475 14.3068 62.6075 14.2468 63.2151 13.7072C63.6126 13.3549 64.0101 13.0101 64.4002 12.6728L64.6477 12.4629L66.4178 14.2468L65.3453 15.4011C64.6477 16.1582 64.5802 16.7803 65.1052 17.6123C65.9303 18.9314 66.4928 20.2656 66.8229 21.6748C67.0254 22.5517 67.5354 22.9715 68.4655 23.0389C69.0355 23.0764 69.6056 23.1064 70.1756 23.1139C70.2206 23.1139 70.2431 23.1139 70.2656 23.1139C70.2656 23.1289 70.2656 23.1588 70.2656 23.1963C70.2506 24.0658 70.2506 24.8603 70.2656 25.6098C70.2656 25.6773 70.2656 25.7148 70.2656 25.7223C70.2506 25.7223 70.2131 25.7372 70.1456 25.7372C69.8006 25.7372 69.4556 25.7597 69.1106 25.7747C68.848 25.7897 68.593 25.8047 68.3305 25.8122C67.5429 25.8347 67.0329 26.2469 66.8679 26.9965C66.5229 28.5555 65.8928 30.0471 64.9927 31.4187C64.5952 32.0259 64.6552 32.6705 65.1502 33.2401L65.1577 33.2326Z" fill="#BF8CCF"/>
<path d="M8.19077 17.0201C8.90332 17.0276 9.19585 17.245 9.52587 18.002C9.8784 18.7965 9.8034 19.2013 9.21835 19.7484C8.83582 20.1007 8.6333 20.4905 8.6258 20.9027C8.6108 21.3375 8.81332 21.7722 9.22585 22.1919C9.70589 22.6866 10.2009 23.1738 10.6885 23.661L11.2885 24.2607C12.3986 25.37 13.0362 25.3925 14.1387 24.3356C14.5288 23.9608 14.7688 23.9608 15.3988 24.1482C16.3814 24.448 16.7114 24.9053 16.6664 25.8872C16.6439 26.2994 16.7789 26.6667 17.034 26.944C17.3265 27.2513 17.7615 27.4237 18.2716 27.4387C18.8866 27.4462 19.4717 27.4537 20.0492 27.4537C20.6493 27.4537 21.2268 27.4537 21.7893 27.4387C22.2994 27.4312 22.7344 27.2513 23.0194 26.944C23.2745 26.6592 23.3945 26.2844 23.357 25.8572C23.282 24.9202 23.597 24.493 24.5946 24.1482C25.2846 23.9159 25.5246 23.9533 25.8697 24.3431C26.1022 24.6054 26.3947 24.7928 26.6797 24.9802C26.8072 25.0627 26.9348 25.1451 27.0623 25.2351C27.1823 25.3175 27.3398 25.325 27.4598 25.25C27.5873 25.1676 27.7073 25.1001 27.8198 25.0402C28.0673 24.8978 28.2999 24.7628 28.5024 24.5755C29.0574 24.0508 29.59 23.5111 30.13 22.9715L30.7076 22.3868C31.2176 21.8771 31.4351 21.4724 31.4351 21.0526C31.4351 20.6404 31.2176 20.2581 30.7451 19.8009C30.25 19.3212 30.1825 18.9839 30.46 18.2344C30.7751 17.3724 31.1351 17.1026 31.9752 17.1251C32.5152 17.1326 32.9202 16.9976 33.2128 16.7128C33.5203 16.413 33.6778 15.9633 33.6853 15.3786C33.6928 14.3068 33.6928 13.235 33.6853 12.1631C33.6853 11.5335 33.5353 11.1063 33.2353 10.814C32.9427 10.5291 32.5152 10.3942 31.9377 10.4092C31.1276 10.4392 30.7901 10.1843 30.475 9.38234C30.16 8.57283 30.235 8.19057 30.7901 7.68089C31.1726 7.3286 31.3751 6.93884 31.3901 6.54159C31.4051 6.11435 31.2026 5.67213 30.7901 5.23739C30.07 4.47287 29.3349 3.71583 28.6074 2.9588C28.2849 2.62151 27.8423 2.23924 27.3098 2.23924C26.9048 2.23924 26.5147 2.45661 26.0722 2.91383C25.5621 3.446 25.2096 3.51346 24.4596 3.22114C23.5895 2.88385 23.3345 2.52407 23.372 1.69958C23.3945 1.21238 23.2595 0.792636 22.9819 0.500316C22.6819 0.18551 22.2244 0.0131169 21.6618 0.00562153C20.8293 -0.00187384 19.9967 -0.00187384 19.1566 0.00562153H18.5566C17.379 0.00562153 16.6514 0.312932 16.6439 1.8195C16.6439 2.57654 16.4114 2.89884 15.6614 3.20615C14.8213 3.54344 14.4538 3.48348 13.9437 2.92882C13.5687 2.51657 13.1712 2.3067 12.7511 2.29921C12.3311 2.27672 11.8511 2.51657 11.4085 2.97379C10.756 3.64088 10.1109 4.32296 9.46587 4.99754L9.26335 5.20741C8.35578 6.15933 8.35578 6.87139 9.26335 7.74835C9.77339 8.24304 9.8334 8.58783 9.54838 9.35985C9.23335 10.2068 8.87332 10.4617 8.00325 10.4317C7.50821 10.4242 7.09568 10.5516 6.80316 10.8364C6.48813 11.1363 6.32312 11.5785 6.32312 12.1481C6.32312 12.8527 6.32312 13.5573 6.32312 14.2543V15.0638C6.32312 16.5479 6.75815 17.0051 8.19077 17.0276V17.0201ZM12.7061 7.29113C12.5411 7.08875 12.3911 6.86389 12.2336 6.62404C12.2111 6.58656 12.1811 6.54908 12.1586 6.51161L12.8711 5.882L13.4637 6.39168C14.2212 7.03628 14.6488 7.0138 15.4813 6.61654C16.3964 6.18181 17.2815 5.81454 18.1291 5.52222C19.0441 5.20741 19.5167 4.83264 19.5242 3.68585V3.09372C19.5242 3.09372 19.5542 3.09372 19.5692 3.09372C19.8767 3.09372 20.1392 3.07873 20.3267 3.09372C20.3492 3.10871 20.3867 3.15368 20.4092 3.19116C20.2292 5.00504 21.4668 5.49973 22.5769 5.73209C23.102 5.84452 23.597 6.11435 24.1295 6.39918C24.272 6.47413 24.4146 6.54909 24.5571 6.62404C25.3896 7.05128 25.8547 7.0063 26.5372 6.41417L27.1898 5.85202L27.8273 6.48912V6.50411C27.6248 6.72148 27.4448 6.92385 27.2648 7.13372C26.7547 7.73335 26.6797 8.28801 27.0248 9.06753C27.4823 10.1019 27.8723 11.0688 28.2174 12.0057C28.5174 12.8227 28.9674 13.16 29.7775 13.175C30.0175 13.175 30.265 13.175 30.52 13.175H30.5725C30.595 13.5498 30.61 13.917 30.5575 13.9845C30.4975 14.0445 30.115 14.0894 29.74 14.1269C28.6749 14.2393 28.4799 14.5467 28.1724 15.4761C27.8873 16.3306 27.5198 17.2225 27.0848 18.1219C26.6422 19.0364 26.6197 19.4486 27.3098 20.2356L27.8198 20.8128L27.1298 21.4199H27.1223C26.9273 21.2475 26.7172 21.0676 26.5147 20.8802C25.9972 20.4155 25.3971 20.3331 24.6696 20.6404C23.657 21.0676 22.6294 21.4724 21.6093 21.8771C20.8893 22.162 20.5067 22.6641 20.4767 23.3612L20.4617 23.646C20.4392 24.1407 20.3417 24.3056 20.2667 24.3581C20.1917 24.4106 20.0042 24.448 19.5917 24.3431C19.5692 24.3206 19.5317 24.2607 19.5317 24.2607C19.6142 22.5517 19.2841 22.132 17.5365 21.7422C16.9065 21.5998 16.2914 21.2625 15.6914 20.9252L15.4588 20.7978C15.1438 20.6254 14.8513 20.543 14.5663 20.543C14.2062 20.543 13.8537 20.6854 13.5087 20.9627C13.0437 21.3375 12.6036 21.3 12.1886 20.8503C12.1886 20.8503 12.1811 20.8428 12.1736 20.8353L12.2111 20.7903C12.3686 20.6029 12.5261 20.4155 12.6911 20.2356C13.2162 19.6885 13.3212 19.0514 12.9986 18.2943C12.5711 17.2825 12.1661 16.2556 11.7611 15.2287C11.491 14.5466 10.9885 14.1794 10.2234 14.1044C9.8859 14.0744 9.46587 14.0295 9.39836 13.977C9.36086 13.902 9.39836 13.6097 9.42837 13.2799H9.46587C9.69839 13.2799 9.95341 13.2799 10.2084 13.2799C10.921 13.2724 11.401 12.8977 11.671 12.1406C11.9861 11.2487 12.3761 10.2068 12.8486 9.21744C13.0962 8.70775 13.2987 8.02567 12.6836 7.28363L12.7061 7.29113Z" fill="#BF8CCF"/>
<path d="M6.88571 58.1772H6.87071C6.04564 58.1772 5.4231 58.7919 5.4231 59.5864C5.4231 59.9761 5.58811 60.3659 5.88063 60.6432C6.16565 60.9205 6.54068 61.0705 6.91571 61.0705C6.93072 61.0705 6.94572 61.0705 6.95322 61.0705C7.74078 61.048 8.40083 60.3509 8.38583 59.5564C8.37083 58.7394 7.75578 58.1697 6.87821 58.1697L6.88571 58.1772Z" fill="#BF8CCF"/>
<path d="M11.161 58.1772H11.1385C10.2609 58.1772 9.64586 58.7394 9.63086 59.5564C9.63086 59.9536 9.77337 60.3284 10.0584 60.6207C10.3434 60.9131 10.7334 61.078 11.131 61.078C11.9185 61.078 12.5861 60.3959 12.5861 59.5939C12.5861 58.7844 11.986 58.1922 11.161 58.1847V58.1772Z" fill="#BF8CCF"/>
<path d="M54.3869 14.4942H54.3794C51.7092 14.4942 49.2115 15.5361 47.3289 17.4249C45.4537 19.3137 44.4261 21.8247 44.4261 24.5005C44.4261 30.0021 48.9115 34.4694 54.4019 34.4694H54.4094C59.9224 34.4694 64.4077 29.9871 64.4077 24.4855C64.4077 21.8172 63.3727 19.3062 61.4825 17.4249C59.5924 15.5361 57.0647 14.4942 54.3719 14.4942H54.3869ZM61.4 24.4855C61.4 26.3444 60.6574 28.0908 59.3298 29.4175C58.0022 30.7292 56.2546 31.4562 54.4094 31.4562H54.3794C52.4968 31.4487 50.7341 30.7142 49.414 29.38C48.1089 28.0608 47.3964 26.3069 47.4039 24.4481C47.4339 20.5954 50.5616 17.4774 54.3794 17.4774H54.4244C58.3398 17.4998 61.4075 20.5804 61.3925 24.493L61.4 24.4855Z" fill="#BF8CCF"/>
<path d="M19.9517 20.3106H19.9967C21.7369 20.3106 23.372 19.636 24.6171 18.4068C25.8847 17.1476 26.5898 15.4686 26.5973 13.6697C26.6123 10.1019 23.582 7.07377 19.9817 7.05878H19.9592C18.1666 7.05878 16.5015 7.72586 15.2789 8.94761C14.0488 10.1769 13.3662 11.8483 13.3662 13.6622C13.3662 17.2975 16.3214 20.2731 19.9592 20.2956L19.9517 20.3106ZM20.0342 17.2975C18.0316 17.2975 16.464 15.6335 16.464 13.5198C16.464 12.5904 16.8315 11.7134 17.499 11.0463C18.1891 10.3642 19.1042 9.98947 20.0867 9.98947H20.1017C22.0294 9.98947 23.657 11.6984 23.6495 13.6997C23.6495 14.6816 23.2745 15.596 22.6069 16.2631C21.9319 16.9302 21.0168 17.2675 20.0417 17.2975H20.0342Z" fill="#BF8CCF"/>
</svg>
