<svg width="38" height="38" viewBox="0 0 38 38" fill="none" xmlns="http://www.w3.org/2000/svg">
<path d="M0.110985 18.9886C-0.0476729 8.62866 8.66842 -0.00506005 18.9988 2.22503e-06C29.2864 0.0050645 37.9118 8.63625 37.8841 19.057C37.8564 29.3713 29.2838 38.0329 18.9182 38.0025C8.64828 37.9722 -0.0552281 29.3536 0.110985 18.9911V18.9886ZM29.9865 24.1774C29.9865 23.0916 29.9739 22.0083 29.989 20.9224C30.0016 20.0188 29.9159 19.1329 29.6792 18.2596C29.4677 17.4775 29.1126 16.7688 28.5862 16.1537C27.7627 15.1894 26.6773 14.7312 25.4509 14.5819C24.4486 14.4604 23.4739 14.587 22.5573 15.0324C21.832 15.3843 21.2905 15.9462 20.8221 16.5916C20.7743 16.6574 20.739 16.7789 20.6307 16.741C20.5274 16.7055 20.5627 16.5891 20.5627 16.5056C20.5602 16.0525 20.5577 15.5994 20.5627 15.1438C20.5627 14.9666 20.5123 14.8654 20.3134 14.8679C18.9988 14.8704 17.6842 14.8704 16.3696 14.8679C16.1631 14.8679 16.0825 14.9666 16.1102 15.1641C16.1832 15.6652 16.148 16.1689 16.148 16.6701C16.143 20.5149 16.1807 24.3622 16.1001 28.207C16.0901 28.6398 16.1001 28.6424 16.5157 28.6424C17.722 28.6424 18.9308 28.6424 20.1371 28.6424C20.5627 28.6424 20.5627 28.6424 20.5627 28.2197C20.5627 25.7341 20.5703 23.2485 20.5627 20.7629C20.5577 19.5353 21.4592 18.1736 22.9526 18.0825C23.693 18.0369 24.373 18.2065 24.8691 18.8367C25.3652 19.467 25.5038 20.2137 25.5088 20.9781C25.5289 23.4029 25.5239 25.8303 25.5138 28.2576C25.5138 28.5513 25.5969 28.6525 25.8966 28.65C27.1331 28.6348 28.3697 28.6348 29.6062 28.65C29.9059 28.6525 29.994 28.5588 29.9915 28.2602C29.9789 26.8984 29.9865 25.5392 29.9865 24.1774ZM8.97314 21.7551C8.97314 23.9142 8.97314 26.0758 8.97314 28.2349C8.97314 28.6398 8.97315 28.6424 9.38616 28.6424C10.6126 28.6424 11.8391 28.6348 13.0655 28.6474C13.3425 28.65 13.4407 28.569 13.4407 28.2804C13.4332 23.9319 13.4332 19.5809 13.4407 15.2324C13.4407 14.9438 13.345 14.8629 13.0655 14.8654C11.8491 14.878 10.6328 14.8704 9.41386 14.8704C9.11837 14.8704 8.97063 15.0156 8.97063 15.3058C8.97063 17.4547 8.97063 19.6062 8.97063 21.7551H8.97314ZM11.2422 12.8405C11.5847 12.8734 11.9599 12.7873 12.3301 12.638C13.1411 12.3089 13.6145 11.6989 13.7152 10.8459C13.8311 9.85626 13.4886 9.04123 12.6021 8.52235C12.0078 8.17305 11.3606 8.12749 10.6957 8.23633C9.82939 8.37807 9.16706 8.82609 8.86738 9.66895C8.55762 10.5422 8.65835 11.3825 9.31061 12.0913C9.81176 12.638 10.4514 12.8683 11.2422 12.8405Z" fill="white"/>
</svg>
