<svg width="181" height="103" viewBox="0 0 181 103" fill="none" xmlns="http://www.w3.org/2000/svg">
<g filter="url(#filter0_d_222_260)">
<rect x="11" y="7" width="159" height="81" rx="40.5" fill="white"/>
</g>
<rect x="11" y="7" width="160" height="80" rx="40" fill="white"/>
<path d="M54.7275 72.1295C69.1521 72.1295 80.8455 60.4361 80.8455 46.0115C80.8455 31.587 69.1521 19.8936 54.7275 19.8936C40.3029 19.8936 28.6095 31.587 28.6095 46.0115C28.6095 60.4361 40.3029 72.1295 54.7275 72.1295Z" fill="#C40626"/>
<path d="M83.9762 44.7744C83.9894 45.1822 84.0091 45.5966 84.0091 46.0109C84.0025 45.5966 83.9959 45.1822 83.9762 44.7744Z" fill="url(#paint0_linear_222_260)"/>
<path d="M60.0024 70.0113C46.7428 70.0113 35.9957 59.2641 35.9957 46.0045C35.9957 32.7449 46.7428 21.9979 60.0024 21.9979C72.8477 21.9979 83.3316 32.0807 83.9762 44.768C83.3251 27.6674 69.2631 14 52.0045 14C34.3317 14 20 28.3317 20 46.0045C20 63.6774 34.3317 78.0091 52.0045 78.0091C69.2631 78.0091 83.3316 64.3417 83.9762 47.2411C83.3316 59.9284 72.8411 70.0113 60.0024 70.0113Z" fill="url(#paint1_linear_222_260)"/>
<path d="M84.0026 46.0107C84.0026 46.4251 83.9895 46.8329 83.9697 47.2473C83.996 46.8329 84.0026 46.4251 84.0026 46.0107Z" fill="url(#paint2_linear_222_260)"/>
<path d="M60.0024 22.0049C47.019 22.0049 36.4561 32.3113 36.022 45.1829C36.4495 36.7246 43.441 30.0028 52.0045 30.0028C60.8442 30.0028 68.0068 37.1653 68.0068 46.005C68.0068 54.8447 60.8442 62.0073 52.0045 62.0073C43.441 62.0073 36.4495 55.2854 36.022 46.8272C36.4561 59.6987 47.0256 70.0051 60.0024 70.0051C73.262 70.0051 84.0091 59.258 84.0091 45.9984C84.0025 32.752 73.2554 22.0049 60.0024 22.0049Z" fill="#D7162F"/>
<path d="M35.9957 46.0116C35.9957 45.7354 36.0089 45.4591 36.0154 45.1895C36.0023 45.4591 35.9957 45.7354 35.9957 46.0116Z" fill="url(#paint3_linear_222_260)"/>
<path d="M36.0154 46.8339C36.0089 46.5576 35.9957 46.288 35.9957 46.0117C35.9957 46.288 36.0023 46.5576 36.0154 46.8339Z" fill="url(#paint4_linear_222_260)"/>
<path d="M58.2463 53.9498H54.0961V47.5766H49.1961V53.9498H45.0459V38.0791H49.1961V43.8407H54.0961V38.0791H58.2463V53.9498ZM75.7022 53.3645V53.9564H71.1705L68.4475 49.2866H66.3363V53.9564H62.2781V38.0857H69.2368C75.472 38.1054 76.6032 45.61 72.5911 48.3329L75.7022 53.3645ZM69.2434 41.7097C68.2897 41.69 67.2965 41.7097 66.3428 41.7097V45.6757H69.2434C71.4402 45.6757 71.552 41.7294 69.2434 41.7097Z" fill="white"/>
<path d="M96.315 38.0989H89.4681V54.0026H91.757V49.3261H96.3216C100.005 49.3261 101.689 46.4256 101.695 43.7355C101.689 41.0257 100.011 38.1121 96.315 38.0989ZM96.2887 47.5043H91.7504V39.8879H92.9475C93.2895 39.8879 93.6512 39.8879 94.0064 39.8813H94.0853C94.8219 39.8747 95.5783 39.8682 96.3084 39.8879C98.1697 39.9076 99.472 41.4664 99.4589 43.6698C99.4589 45.5772 98.3605 47.5043 96.2887 47.5043ZM114.869 54.0026H117.684L114.205 48.3725L115.152 47.7279C116.994 46.4782 117.789 43.9921 117.086 41.6769C116.408 39.4473 114.488 38.1121 111.949 38.0989H105.128V54.0026H107.417V48.6224H111.725L114.869 54.0026ZM107.417 39.8879H108.614C108.976 39.8879 109.338 39.8879 109.706 39.8813C110.522 39.8747 111.258 39.8682 111.982 39.8879C114.04 39.9142 115.113 41.6506 115.099 43.3541C115.093 45.0905 114.008 46.8466 111.956 46.8466H107.417V39.8879ZM128.043 37.7832C124.104 37.7832 119.855 40.3746 119.855 46.0705C119.855 51.7795 124.097 54.3775 128.043 54.3775C131.983 54.3775 136.232 51.7795 136.232 46.0705C136.232 40.3812 131.99 37.7832 128.043 37.7832ZM128.056 52.2464C125.182 52.2464 122.275 50.1286 122.275 46.0771C122.275 42.0518 125.182 39.9471 128.056 39.9471C130.931 39.9471 133.838 42.0518 133.838 46.0771C133.838 50.1286 130.931 52.2464 128.056 52.2464Z" fill="#D7162F"/>
<defs>
<filter id="filter0_d_222_260" x="0" y="0" width="181" height="103" filterUnits="userSpaceOnUse" color-interpolation-filters="sRGB">
<feFlood flood-opacity="0" result="BackgroundImageFix"/>
<feColorMatrix in="SourceAlpha" type="matrix" values="0 0 0 0 0 0 0 0 0 0 0 0 0 0 0 0 0 0 127 0" result="hardAlpha"/>
<feMorphology radius="3" operator="dilate" in="SourceAlpha" result="effect1_dropShadow_222_260"/>
<feOffset dy="4"/>
<feGaussianBlur stdDeviation="4"/>
<feComposite in2="hardAlpha" operator="out"/>
<feColorMatrix type="matrix" values="0 0 0 0 0 0 0 0 0 0 0 0 0 0 0 0 0 0 0.17 0"/>
<feBlend mode="normal" in2="BackgroundImageFix" result="effect1_dropShadow_222_260"/>
<feBlend mode="normal" in="SourceGraphic" in2="effect1_dropShadow_222_260" result="shape"/>
</filter>
<linearGradient id="paint0_linear_222_260" x1="14.2732" y1="45.3904" x2="94.8184" y2="45.3904" gradientUnits="userSpaceOnUse">
<stop stop-color="#B6DCD4"/>
<stop offset="1" stop-color="#4B6D8F"/>
</linearGradient>
<linearGradient id="paint1_linear_222_260" x1="19.9939" y1="46.0083" x2="83.9731" y2="46.0083" gradientUnits="userSpaceOnUse">
<stop offset="0.00456763" stop-color="#FF8955"/>
<stop offset="0.9982" stop-color="#FF1D43"/>
</linearGradient>
<linearGradient id="paint2_linear_222_260" x1="14.3583" y1="46.6255" x2="94.8053" y2="46.6255" gradientUnits="userSpaceOnUse">
<stop stop-color="#B6DCD4"/>
<stop offset="1" stop-color="#4B6D8F"/>
</linearGradient>
<linearGradient id="paint3_linear_222_260" x1="82.2903" y1="45.5968" x2="36.1843" y2="45.5968" gradientUnits="userSpaceOnUse">
<stop stop-color="#B6DCD4"/>
<stop offset="1" stop-color="#4B6D8F"/>
</linearGradient>
<linearGradient id="paint4_linear_222_260" x1="82.2903" y1="46.4208" x2="36.1843" y2="46.4208" gradientUnits="userSpaceOnUse">
<stop stop-color="#B6DCD4"/>
<stop offset="1" stop-color="#4B6D8F"/>
</linearGradient>
</defs>
</svg>
