<svg width="19" height="19" viewBox="0 0 19 19" fill="none" xmlns="http://www.w3.org/2000/svg">
<g clip-path="url(#clip0_222_94)">
<path d="M10.3089 17.2525C14.5906 17.2525 18.0616 13.7815 18.0616 9.4998C18.0616 5.21808 14.5906 1.74707 10.3089 1.74707C6.02717 1.74707 2.55615 5.21808 2.55615 9.4998C2.55615 13.7815 6.02717 17.2525 10.3089 17.2525Z" fill="#C40626"/>
<path d="M18.9871 9.13135C18.9871 9.2543 18.9935 9.37726 18.9935 9.50022C18.9935 9.37726 18.9935 9.2543 18.9871 9.13135Z" fill="url(#paint0_linear_222_94)"/>
<path d="M11.875 16.625C7.9404 16.625 4.75 13.4346 4.75 9.5C4.75 5.5654 7.9404 2.375 11.875 2.375C15.8096 2.375 18.7994 5.37125 18.9935 9.13113C18.7994 4.05756 14.6253 0 9.50647 0C4.3876 0 0 4.2517 0 9.5C0 14.7483 4.2517 19 9.5 19C14.7483 19 18.7994 14.9424 18.9871 9.86887C18.7994 13.6352 15.6866 16.625 11.8685 16.625H11.875Z" fill="url(#paint1_linear_222_94)"/>
<path d="M19 9.5C19 9.62296 19 9.74591 18.9935 9.86887C18.9935 9.74591 19 9.62296 19 9.5Z" fill="url(#paint2_linear_222_94)"/>
<path d="M11.875 2.375C8.02452 2.375 4.8859 5.43597 4.75647 9.25409C4.8859 6.74319 6.95674 4.75 9.5 4.75C12.0433 4.75 14.25 6.87909 14.25 9.5C14.25 12.1209 12.1209 14.25 9.5 14.25C6.87909 14.25 4.8859 12.2568 4.75647 9.74591C4.8859 13.5705 8.02452 16.625 11.875 16.625C15.7255 16.625 19 13.4346 19 9.5C19 5.5654 15.8096 2.375 11.875 2.375Z" fill="#D7162F"/>
</g>
<defs>
<linearGradient id="paint0_linear_222_94" x1="-1.67656" y1="9.31902" x2="22.2034" y2="9.31902" gradientUnits="userSpaceOnUse">
<stop stop-color="#B6DCD4"/>
<stop offset="1" stop-color="#4B6D8F"/>
</linearGradient>
<linearGradient id="paint1_linear_222_94" x1="0" y1="9.5" x2="18.9871" y2="9.5" gradientUnits="userSpaceOnUse">
<stop stop-color="#FF8955"/>
<stop offset="1" stop-color="#FF1D43"/>
</linearGradient>
<linearGradient id="paint2_linear_222_94" x1="-0.000434384" y1="9.6812" x2="0.646719" y2="9.6812" gradientUnits="userSpaceOnUse">
<stop stop-color="#B6DCD4"/>
<stop offset="1" stop-color="#4B6D8F"/>
</linearGradient>
<clipPath id="clip0_222_94">
<rect width="19" height="19" fill="white"/>
</clipPath>
</defs>
</svg>
