<svg width="38" height="38" viewBox="0 0 38 38" fill="none" xmlns="http://www.w3.org/2000/svg">
<path d="M0.219363 18.9684C0.224399 8.49197 8.68613 -0.00253057 19.1147 5.65513e-07C29.5534 0.0025317 38.0076 8.51475 37.995 19.0114C37.9824 29.4852 29.5131 37.9772 19.0845 37.9646C8.66095 37.9544 0.214326 29.4498 0.219363 18.9658V18.9684ZM18.8553 24.995C19.0392 25.1292 19.2054 25.2481 19.3716 25.3696C20.734 26.377 22.0915 27.3895 23.4564 28.3943C24.3101 29.022 24.9951 28.774 25.2671 27.7438C25.2847 27.678 25.2973 27.6097 25.3099 27.5413C26.1334 23.6484 26.9569 19.7555 27.7779 15.8627C27.9996 14.8097 28.2514 13.7618 28.4126 12.6987C28.5637 11.6837 27.9215 11.2104 26.9645 11.5597C26.9192 11.5774 26.8713 11.5926 26.826 11.6129C23.6377 12.8506 20.4495 14.0883 17.2587 15.3261C14.5464 16.3765 11.8291 17.4218 9.11678 18.4773C8.82465 18.5912 8.53251 18.7203 8.27312 18.895C7.75433 19.2468 7.79463 19.672 8.34867 19.9504C8.46199 20.0087 8.58288 20.0567 8.70377 20.0947C10.1468 20.5478 11.5949 20.9933 13.0354 21.4539C13.2343 21.5172 13.3829 21.497 13.5567 21.3881C15.5084 20.1453 17.4652 18.9127 19.4194 17.6749C20.9582 16.7005 22.4944 15.7234 24.0382 14.7591C24.2144 14.6477 24.431 14.5971 24.635 14.5389C24.6829 14.5237 24.7911 14.5718 24.8037 14.6148C24.8239 14.6755 24.8037 14.7717 24.7634 14.8249C24.6954 14.9185 24.5998 14.9945 24.5116 15.0755C23.7309 15.7842 22.9502 16.4929 22.1695 17.2016C20.185 19.0038 18.198 20.8034 16.2186 22.6107C16.0977 22.722 15.9617 22.8866 15.9491 23.0359C15.8308 24.4938 15.7376 25.9518 15.6394 27.4122C15.6343 27.4856 15.6469 27.5616 15.652 27.6451C15.9844 27.6729 16.2236 27.5337 16.4377 27.3312C16.7449 27.0402 17.0471 26.7415 17.3519 26.4479C17.8455 25.9695 18.3416 25.4936 18.8528 25.0001L18.8553 24.995Z" fill="white"/>
</svg>
