<svg width="91" height="105" viewBox="0 0 91 105" fill="none" xmlns="http://www.w3.org/2000/svg">
<g filter="url(#filter0_d_275_64)">
<circle cx="45" cy="33" r="30" fill="white"/>
<circle cx="45" cy="33" r="27.5" stroke="#BF8CCF" stroke-width="5"/>
</g>
<path d="M47.2596 16.0192C46.2833 15.0429 44.7004 15.0429 43.7241 16.0192L27.8142 31.9291C26.8378 32.9054 26.8378 34.4883 27.8142 35.4646C28.7905 36.4409 30.3734 36.4409 31.3497 35.4646L45.4918 21.3225L59.634 35.4646C60.6103 36.4409 62.1932 36.4409 63.1695 35.4646C64.1458 34.4883 64.1458 32.9054 63.1695 31.9291L47.2596 16.0192ZM47.9918 52.2132L47.9918 17.7869L42.9918 17.7869L42.9918 52.2132L47.9918 52.2132Z" fill="#BF8CCF"/>
<path d="M8.82031 103V88.7812H11.4473V94.6309H17.4629V88.7812H20.0898V103H17.4629V96.7012H11.4473V103H8.82031ZM21.3984 103L26.6719 88.7129H29.3867L34.6992 103H31.9258L28.2832 92.707C28.2051 92.4857 28.14 92.2741 28.0879 92.0723C28.0358 91.8704 27.9902 91.6686 27.9512 91.4668H27.873C27.8275 91.6686 27.7786 91.8704 27.7266 92.0723C27.6745 92.2741 27.6094 92.4857 27.5312 92.707L23.8984 103H21.3984ZM24.1426 99.6895L24.7676 97.7168H31.1738L31.7988 99.6895H24.1426ZM36.0078 103V88.7812H44.7773V90.832H38.6348V103H36.0078ZM45.959 96.3301V95.4512C45.959 93.1855 46.5319 91.4635 47.6777 90.2852C48.8301 89.1003 50.3079 88.5078 52.1113 88.5078C53.9147 88.5078 55.3926 89.1003 56.5449 90.2852C57.7038 91.4635 58.2832 93.1855 58.2832 95.4512V96.3301C58.2832 98.5957 57.7038 100.321 56.5449 101.506C55.3926 102.684 53.9147 103.273 52.1113 103.273C50.3079 103.273 48.8301 102.684 47.6777 101.506C46.5319 100.321 45.959 98.5957 45.959 96.3301ZM48.6543 96.5742C48.6543 98.1237 48.9668 99.2891 49.5918 100.07C50.2233 100.845 51.0632 101.232 52.1113 101.232C53.166 101.232 54.0091 100.845 54.6406 100.07C55.2721 99.2891 55.5879 98.1237 55.5879 96.5742V95.207C55.5879 93.6641 55.2721 92.5052 54.6406 91.7305C54.0091 90.9492 53.166 90.5586 52.1113 90.5586C51.0632 90.5586 50.2233 90.9492 49.5918 91.7305C48.9668 92.5052 48.6543 93.6641 48.6543 95.207V96.5742ZM60.7344 103V88.7812H65.9199C67.515 88.7812 68.7389 89.1816 69.5918 89.9824C70.4447 90.7832 70.8711 91.89 70.8711 93.3027C70.8711 94.709 70.4447 95.819 69.5918 96.6328C68.7454 97.4466 67.5182 97.8535 65.9102 97.8535H63.3613V103H60.7344ZM63.3613 95.8613H65.6855C66.6426 95.8613 67.3066 95.627 67.6777 95.1582C68.0553 94.6829 68.2441 94.0677 68.2441 93.3125C68.2441 92.5573 68.0553 91.9486 67.6777 91.4863C67.3066 91.0241 66.6426 90.793 65.6855 90.793H63.3613V95.8613ZM72.8242 100.871C73 100.923 73.1921 100.965 73.4004 100.998C73.6152 101.031 73.8203 101.047 74.0156 101.047C74.5885 101.047 75.0573 100.923 75.4219 100.676C75.7865 100.422 76.151 99.9434 76.5156 99.2402L76.4766 99.3184L71.3984 88.7812H74.1914L77.1602 95.3047C77.3359 95.6758 77.4499 95.959 77.502 96.1543C77.5605 96.3431 77.6419 96.5579 77.7461 96.7988H77.8047C77.8958 96.5579 77.9707 96.3464 78.0293 96.1641C78.0879 95.9753 78.1986 95.6921 78.3613 95.3145L81.0859 88.7812H83.5957L79.0742 99.123C78.3906 100.692 77.707 101.779 77.0234 102.385C76.3398 102.984 75.4674 103.283 74.4062 103.283C73.9961 103.283 73.6771 103.267 73.4492 103.234C73.2279 103.202 73.0195 103.153 72.8242 103.088V100.871Z" fill="#5D5D5D"/>
<defs>
<filter id="filter0_d_275_64" x="8" y="0" width="74" height="74" filterUnits="userSpaceOnUse" color-interpolation-filters="sRGB">
<feFlood flood-opacity="0" result="BackgroundImageFix"/>
<feColorMatrix in="SourceAlpha" type="matrix" values="0 0 0 0 0 0 0 0 0 0 0 0 0 0 0 0 0 0 127 0" result="hardAlpha"/>
<feMorphology radius="1" operator="dilate" in="SourceAlpha" result="effect1_dropShadow_275_64"/>
<feOffset dy="4"/>
<feGaussianBlur stdDeviation="3"/>
<feComposite in2="hardAlpha" operator="out"/>
<feColorMatrix type="matrix" values="0 0 0 0 0.607843 0 0 0 0 0.309804 0 0 0 0 0.717647 0 0 0 0.35 0"/>
<feBlend mode="normal" in2="BackgroundImageFix" result="effect1_dropShadow_275_64"/>
<feBlend mode="normal" in="SourceGraphic" in2="effect1_dropShadow_275_64" result="shape"/>
</filter>
</defs>
</svg>
